<?xml version="1.0" encoding="utf-8"?>
<svg xmlns="http://www.w3.org/2000/svg" xmlns:xlink="http://www.w3.org/1999/xlink" width="600" height="400" viewBox="0 0 2400 1600">
<defs>
  <clipPath id="clip840">
    <rect x="0" y="0" width="2400" height="1600"/>
  </clipPath>
</defs>
<path clip-path="url(#clip840)" d="M0 1600 L2400 1600 L2400 0 L0 0  Z" fill="#ffffff" fill-rule="evenodd" fill-opacity="1"/>
<defs>
  <clipPath id="clip841">
    <rect x="480" y="0" width="1681" height="1600"/>
  </clipPath>
</defs>
<path clip-path="url(#clip840)" d="M156.598 1486.45 L2352.76 1486.45 L2352.76 47.2441 L156.598 47.2441  Z" fill="#ffffff" fill-rule="evenodd" fill-opacity="1"/>
<defs>
  <clipPath id="clip842">
    <rect x="156" y="47" width="2197" height="1440"/>
  </clipPath>
</defs>
<defs>
  <clipPath id="clip843">
    <rect x="589" y="157" width="1330" height="1330"/>
  </clipPath>
</defs>
<polyline clip-path="url(#clip843)" style="stroke:#000000; stroke-linecap:round; stroke-linejoin:round; stroke-width:2; stroke-opacity:0.1; fill:none" points="1919.38,821.75 1254.68,821.75 "/>
<polyline clip-path="url(#clip843)" style="stroke:#000000; stroke-linecap:round; stroke-linejoin:round; stroke-width:2; stroke-opacity:0.1; fill:none" points="1724.69,1291.76 1254.68,821.75 "/>
<polyline clip-path="url(#clip843)" style="stroke:#000000; stroke-linecap:round; stroke-linejoin:round; stroke-width:2; stroke-opacity:0.1; fill:none" points="1254.68,1486.45 1254.68,821.75 "/>
<polyline clip-path="url(#clip843)" style="stroke:#000000; stroke-linecap:round; stroke-linejoin:round; stroke-width:2; stroke-opacity:0.1; fill:none" points="784.665,1291.76 1254.68,821.75 "/>
<polyline clip-path="url(#clip843)" style="stroke:#000000; stroke-linecap:round; stroke-linejoin:round; stroke-width:2; stroke-opacity:0.1; fill:none" points="589.979,821.75 1254.68,821.75 "/>
<polyline clip-path="url(#clip843)" style="stroke:#000000; stroke-linecap:round; stroke-linejoin:round; stroke-width:2; stroke-opacity:0.1; fill:none" points="784.665,351.737 1254.68,821.75 "/>
<polyline clip-path="url(#clip843)" style="stroke:#000000; stroke-linecap:round; stroke-linejoin:round; stroke-width:2; stroke-opacity:0.1; fill:none" points="1254.68,157.052 1254.68,821.75 "/>
<polyline clip-path="url(#clip843)" style="stroke:#000000; stroke-linecap:round; stroke-linejoin:round; stroke-width:2; stroke-opacity:0.1; fill:none" points="1724.69,351.737 1254.68,821.75 "/>
<polyline clip-path="url(#clip843)" style="stroke:#000000; stroke-linecap:round; stroke-linejoin:round; stroke-width:2; stroke-opacity:0.1; fill:none" points="1254.68,821.75 1254.68,821.75 "/>
<polyline clip-path="url(#clip843)" style="stroke:#000000; stroke-linecap:round; stroke-linejoin:round; stroke-width:2; stroke-opacity:0.1; fill:none" points="1387.62,821.75 1387.6,819.43 1387.54,817.11 1387.43,814.792 1387.29,812.477 1387.11,810.163 1386.89,807.854 1386.63,805.549 1386.32,803.248 1385.98,800.954 1385.6,798.665 1385.17,796.384 1384.71,794.11 1384.21,791.845 1383.67,789.589 1383.09,787.343 1382.47,785.107 1381.81,782.882 1381.11,780.669 1380.37,778.469 1379.6,776.282 1378.79,774.109 1377.94,771.95 1377.05,769.806 1376.12,767.679 1375.16,765.567 1374.16,763.473 1373.13,761.397 1372.06,759.339 1370.95,757.3 1369.81,755.28 1368.63,753.281 1367.42,751.303 1366.17,749.346 1364.89,747.411 1363.57,745.499 1362.23,743.61 1360.85,741.745 1359.43,739.904 1357.99,738.088 1356.51,736.298 1355.01,734.534 1353.47,732.796 1351.9,731.085 1350.31,729.402 1348.68,727.747 1347.02,726.121 1345.34,724.524 1343.63,722.957 1341.89,721.419 1340.13,719.912 1338.34,718.436 1336.52,716.992 1334.68,715.58 1332.82,714.2 1330.93,712.852 1329.02,711.538 1327.08,710.257 1325.12,709.011 1323.15,707.798 1321.15,706.621 1319.13,705.478 1317.09,704.371 1315.03,703.3 1312.95,702.265 1310.86,701.266 1308.75,700.304 1306.62,699.378 1304.48,698.49 1302.32,697.64 1300.15,696.828 1297.96,696.053 1295.76,695.317 1293.54,694.619 1291.32,693.96 1289.08,693.34 1286.84,692.759 1284.58,692.218 1282.32,691.715 1280.04,691.253 1277.76,690.83 1275.47,690.447 1273.18,690.104 1270.88,689.801 1268.57,689.539 1266.26,689.316 1263.95,689.134 1261.63,688.993 1259.32,688.891 1257,688.831 1254.68,688.81 1252.36,688.831 1250.04,688.891 1247.72,688.993 1245.4,689.134 1243.09,689.316 1240.78,689.539 1238.48,689.801 1236.18,690.104 1233.88,690.447 1231.59,690.83 1229.31,691.253 1227.04,691.715 1224.77,692.218 1222.52,692.759 1220.27,693.34 1218.03,693.96 1215.81,694.619 1213.6,695.317 1211.4,696.053 1209.21,696.828 1207.04,697.64 1204.88,698.49 1202.73,699.378 1200.61,700.304 1198.49,701.266 1196.4,702.265 1194.32,703.3 1192.27,704.371 1190.23,705.478 1188.21,706.621 1186.21,707.798 1184.23,709.011 1182.27,710.257 1180.34,711.538 1178.43,712.852 1176.54,714.2 1174.67,715.58 1172.83,716.992 1171.02,718.436 1169.23,719.912 1167.46,721.419 1165.72,722.957 1164.01,724.524 1162.33,726.121 1160.67,727.747 1159.05,729.402 1157.45,731.085 1155.88,732.796 1154.35,734.534 1152.84,736.298 1151.36,738.088 1149.92,739.904 1148.51,741.745 1147.13,743.61 1145.78,745.499 1144.47,747.411 1143.18,749.346 1141.94,751.303 1140.73,753.281 1139.55,755.28 1138.41,757.3 1137.3,759.339 1136.23,761.397 1135.19,763.473 1134.19,765.567 1133.23,767.679 1132.31,769.806 1131.42,771.95 1130.57,774.109 1129.75,776.282 1128.98,778.469 1128.24,780.669 1127.55,782.882 1126.89,785.107 1126.27,787.343 1125.69,789.589 1125.14,791.845 1124.64,794.11 1124.18,796.384 1123.76,798.665 1123.37,800.954 1123.03,803.248 1122.73,805.549 1122.47,807.854 1122.24,810.163 1122.06,812.477 1121.92,814.792 1121.82,817.11 1121.76,819.43 1121.74,821.75 1121.76,824.07 1121.82,826.389 1121.92,828.707 1122.06,831.023 1122.24,833.336 1122.47,835.646 1122.73,837.951 1123.03,840.252 1123.37,842.546 1123.76,844.835 1124.18,847.116 1124.64,849.39 1125.14,851.655 1125.69,853.911 1126.27,856.157 1126.89,858.393 1127.55,860.618 1128.24,862.831 1128.98,865.031 1129.75,867.218 1130.57,869.391 1131.42,871.55 1132.31,873.694 1133.23,875.821 1134.19,877.933 1135.19,880.027 1136.23,882.103 1137.3,884.161 1138.41,886.2 1139.55,888.22 1140.73,890.219 1141.94,892.197 1143.18,894.154 1144.47,896.089 1145.78,898.001 1147.13,899.89 1148.51,901.755 1149.92,903.596 1151.36,905.412 1152.84,907.202 1154.35,908.966 1155.88,910.704 1157.45,912.415 1159.05,914.098 1160.67,915.752 1162.33,917.379 1164.01,918.976 1165.72,920.543 1167.46,922.081 1169.23,923.588 1171.02,925.063 1172.83,926.508 1174.67,927.92 1176.54,929.3 1178.43,930.648 1180.34,931.962 1182.27,933.242 1184.23,934.489 1186.21,935.701 1188.21,936.879 1190.23,938.022 1192.27,939.129 1194.32,940.2 1196.4,941.235 1198.49,942.234 1200.61,943.196 1202.73,944.121 1204.88,945.009 1207.04,945.86 1209.21,946.672 1211.4,947.447 1213.6,948.183 1215.81,948.881 1218.03,949.54 1220.27,950.16 1222.52,950.741 1224.77,951.282 1227.04,951.784 1229.31,952.247 1231.59,952.67 1233.88,953.053 1236.18,953.396 1238.48,953.699 1240.78,953.961 1243.09,954.184 1245.4,954.366 1247.72,954.507 1250.04,954.609 1252.36,954.669 1254.68,954.69 1257,954.669 1259.32,954.609 1261.63,954.507 1263.95,954.366 1266.26,954.184 1268.57,953.961 1270.88,953.699 1273.18,953.396 1275.47,953.053 1277.76,952.67 1280.04,952.247 1282.32,951.784 1284.58,951.282 1286.84,950.741 1289.08,950.16 1291.32,949.54 1293.54,948.881 1295.76,948.183 1297.96,947.447 1300.15,946.672 1302.32,945.86 1304.48,945.009 1306.62,944.121 1308.75,943.196 1310.86,942.234 1312.95,941.235 1315.03,940.2 1317.09,939.129 1319.13,938.022 1321.15,936.879 1323.15,935.701 1325.12,934.489 1327.08,933.242 1329.02,931.962 1330.93,930.648 1332.82,929.3 1334.68,927.92 1336.52,926.508 1338.34,925.063 1340.13,923.588 1341.89,922.081 1343.63,920.543 1345.34,918.976 1347.02,917.379 1348.68,915.752 1350.31,914.098 1351.9,912.415 1353.47,910.704 1355.01,908.966 1356.51,907.202 1357.99,905.412 1359.43,903.596 1360.85,901.755 1362.23,899.89 1363.57,898.001 1364.89,896.089 1366.17,894.154 1367.42,892.197 1368.63,890.219 1369.81,888.22 1370.95,886.2 1372.06,884.161 1373.13,882.103 1374.16,880.027 1375.16,877.933 1376.12,875.821 1377.05,873.694 1377.94,871.55 1378.79,869.391 1379.6,867.218 1380.37,865.031 1381.11,862.831 1381.81,860.618 1382.47,858.393 1383.09,856.157 1383.67,853.911 1384.21,851.655 1384.71,849.39 1385.17,847.116 1385.6,844.835 1385.98,842.546 1386.32,840.252 1386.63,837.951 1386.89,835.646 1387.11,833.336 1387.29,831.023 1387.43,828.707 1387.54,826.389 1387.6,824.07 "/>
<polyline clip-path="url(#clip843)" style="stroke:#000000; stroke-linecap:round; stroke-linejoin:round; stroke-width:2; stroke-opacity:0.1; fill:none" points="1520.56,821.75 1520.52,817.11 1520.39,812.471 1520.19,807.835 1519.91,803.203 1519.54,798.577 1519.1,793.958 1518.57,789.347 1517.97,784.747 1517.28,780.157 1516.52,775.58 1515.67,771.018 1514.75,766.471 1513.74,761.94 1512.66,757.428 1511.5,752.935 1510.26,748.464 1508.94,744.014 1507.54,739.589 1506.07,735.188 1504.52,730.814 1502.9,726.467 1501.2,722.15 1499.42,717.863 1497.57,713.607 1495.65,709.385 1493.65,705.196 1491.58,701.043 1489.43,696.927 1487.22,692.849 1484.94,688.81 1482.58,684.812 1480.16,680.855 1477.66,676.942 1475.1,673.072 1472.47,669.248 1469.78,665.47 1467.02,661.74 1464.19,658.058 1461.3,654.427 1458.35,650.846 1455.34,647.317 1452.26,643.842 1449.13,640.421 1445.93,637.055 1442.68,633.745 1439.37,630.492 1436.01,627.298 1432.58,624.163 1429.11,621.088 1425.58,618.075 1422,615.123 1418.37,612.234 1414.69,609.409 1410.96,606.649 1407.18,603.954 1403.35,601.326 1399.49,598.765 1395.57,596.272 1391.61,593.847 1387.62,591.492 1383.58,589.207 1379.5,586.993 1375.38,584.85 1371.23,582.779 1367.04,580.782 1362.82,578.857 1358.56,577.007 1354.28,575.231 1349.96,573.53 1345.61,571.905 1341.24,570.356 1336.84,568.884 1332.41,567.488 1327.96,566.17 1323.49,564.93 1319,563.768 1314.49,562.685 1309.96,561.681 1305.41,560.756 1300.85,559.91 1296.27,559.144 1291.68,558.458 1287.08,557.853 1282.47,557.327 1277.85,556.882 1273.22,556.518 1268.59,556.235 1263.96,556.033 1259.32,555.911 1254.68,555.871 1250.04,555.911 1245.4,556.033 1240.76,556.235 1236.13,556.518 1231.5,556.882 1226.89,557.327 1222.27,557.853 1217.67,558.458 1213.08,559.144 1208.51,559.91 1203.94,560.756 1199.4,561.681 1194.87,562.685 1190.36,563.768 1185.86,564.93 1181.39,566.17 1176.94,567.488 1172.52,568.884 1168.12,570.356 1163.74,571.905 1159.39,573.53 1155.08,575.231 1150.79,577.007 1146.53,578.857 1142.31,580.782 1138.12,582.779 1133.97,584.85 1129.85,586.993 1125.78,589.207 1121.74,591.492 1117.74,593.847 1113.78,596.272 1109.87,598.765 1106,601.326 1102.18,603.954 1098.4,606.649 1094.67,609.409 1090.99,612.234 1087.35,615.123 1083.77,618.075 1080.24,621.088 1076.77,624.163 1073.35,627.298 1069.98,630.492 1066.67,633.745 1063.42,637.055 1060.23,640.421 1057.09,643.842 1054.02,647.317 1051,650.846 1048.05,654.427 1045.16,658.058 1042.34,661.74 1039.58,665.47 1036.88,669.248 1034.25,673.072 1031.69,676.942 1029.2,680.855 1026.77,684.812 1024.42,688.81 1022.13,692.849 1019.92,696.927 1017.78,701.043 1015.71,705.196 1013.71,709.385 1011.78,713.607 1009.93,717.863 1008.16,722.15 1006.46,726.467 1004.83,730.814 1003.28,735.188 1001.81,739.589 1000.42,744.014 999.098,748.464 997.858,752.935 996.696,757.428 995.612,761.94 994.608,766.471 993.683,771.018 992.837,775.58 992.071,780.157 991.385,784.747 990.78,789.347 990.254,793.958 989.81,798.577 989.446,803.203 989.162,807.835 988.96,812.471 988.838,817.11 988.798,821.75 988.838,826.39 988.96,831.029 989.162,835.665 989.446,840.297 989.81,844.923 990.254,849.542 990.78,854.152 991.385,858.753 992.071,863.343 992.837,867.919 993.683,872.482 994.608,877.029 995.612,881.56 996.696,886.072 997.858,890.565 999.098,895.036 1000.42,899.485 1001.81,903.911 1003.28,908.312 1004.83,912.686 1006.46,917.033 1008.16,921.35 1009.93,925.637 1011.78,929.893 1013.71,934.115 1015.71,938.304 1017.78,942.457 1019.92,946.573 1022.13,950.651 1024.42,954.69 1026.77,958.688 1029.2,962.644 1031.69,966.558 1034.25,970.428 1036.88,974.252 1039.58,978.03 1042.34,981.76 1045.16,985.441 1048.05,989.073 1051,992.654 1054.02,996.182 1057.09,999.658 1060.23,1003.08 1063.42,1006.45 1066.67,1009.75 1069.98,1013.01 1073.35,1016.2 1076.77,1019.34 1080.24,1022.41 1083.77,1025.43 1087.35,1028.38 1090.99,1031.27 1094.67,1034.09 1098.4,1036.85 1102.18,1039.55 1106,1042.17 1109.87,1044.73 1113.78,1047.23 1117.74,1049.65 1121.74,1052.01 1125.78,1054.29 1129.85,1056.51 1133.97,1058.65 1138.12,1060.72 1142.31,1062.72 1146.53,1064.64 1150.79,1066.49 1155.08,1068.27 1159.39,1069.97 1163.74,1071.59 1168.12,1073.14 1172.52,1074.62 1176.94,1076.01 1181.39,1077.33 1185.86,1078.57 1190.36,1079.73 1194.87,1080.81 1199.4,1081.82 1203.94,1082.74 1208.51,1083.59 1213.08,1084.36 1217.67,1085.04 1222.27,1085.65 1226.89,1086.17 1231.5,1086.62 1236.13,1086.98 1240.76,1087.26 1245.4,1087.47 1250.04,1087.59 1254.68,1087.63 1259.32,1087.59 1263.96,1087.47 1268.59,1087.26 1273.22,1086.98 1277.85,1086.62 1282.47,1086.17 1287.08,1085.65 1291.68,1085.04 1296.27,1084.36 1300.85,1083.59 1305.41,1082.74 1309.96,1081.82 1314.49,1080.81 1319,1079.73 1323.49,1078.57 1327.96,1077.33 1332.41,1076.01 1336.84,1074.62 1341.24,1073.14 1345.61,1071.59 1349.96,1069.97 1354.28,1068.27 1358.56,1066.49 1362.82,1064.64 1367.04,1062.72 1371.23,1060.72 1375.38,1058.65 1379.5,1056.51 1383.58,1054.29 1387.62,1052.01 1391.61,1049.65 1395.57,1047.23 1399.49,1044.73 1403.35,1042.17 1407.18,1039.55 1410.96,1036.85 1414.69,1034.09 1418.37,1031.27 1422,1028.38 1425.58,1025.43 1429.11,1022.41 1432.58,1019.34 1436.01,1016.2 1439.37,1013.01 1442.68,1009.75 1445.93,1006.45 1449.13,1003.08 1452.26,999.658 1455.34,996.182 1458.35,992.654 1461.3,989.073 1464.19,985.441 1467.02,981.76 1469.78,978.03 1472.47,974.252 1475.1,970.428 1477.66,966.558 1480.16,962.644 1482.58,958.688 1484.94,954.69 1487.22,950.651 1489.43,946.573 1491.58,942.457 1493.65,938.304 1495.65,934.115 1497.57,929.893 1499.42,925.637 1501.2,921.35 1502.9,917.033 1504.52,912.686 1506.07,908.312 1507.54,903.911 1508.94,899.485 1510.26,895.036 1511.5,890.565 1512.66,886.072 1513.74,881.56 1514.75,877.029 1515.67,872.482 1516.52,867.919 1517.28,863.343 1517.97,858.753 1518.57,854.152 1519.1,849.542 1519.54,844.923 1519.91,840.297 1520.19,835.665 1520.39,831.029 1520.52,826.39 "/>
<polyline clip-path="url(#clip843)" style="stroke:#000000; stroke-linecap:round; stroke-linejoin:round; stroke-width:2; stroke-opacity:0.1; fill:none" points="1653.5,821.75 1653.44,814.79 1653.25,807.831 1652.95,800.877 1652.52,793.93 1651.98,786.991 1651.31,780.062 1650.52,773.146 1649.61,766.245 1648.59,759.361 1647.44,752.496 1646.17,745.652 1644.78,738.831 1643.27,732.035 1641.65,725.267 1639.91,718.528 1638.05,711.821 1636.07,705.147 1633.98,698.508 1631.77,691.907 1629.44,685.346 1627.01,678.826 1624.46,672.35 1621.79,665.919 1619.02,659.536 1616.13,653.202 1613.13,646.919 1610.03,640.69 1606.81,634.516 1603.49,628.399 1600.06,622.341 1596.53,616.343 1592.89,610.408 1589.15,604.538 1585.31,598.733 1581.37,592.997 1577.33,587.33 1573.19,581.735 1568.95,576.213 1564.62,570.765 1560.19,565.394 1555.67,560.101 1551.06,554.888 1546.35,549.756 1541.56,544.707 1536.68,539.742 1531.72,534.864 1526.67,530.072 1521.54,525.37 1516.33,520.758 1511.03,516.237 1505.66,511.81 1500.21,507.476 1494.69,503.239 1489.1,499.099 1483.43,495.057 1477.69,491.114 1471.89,487.272 1466.02,483.532 1460.08,479.896 1454.09,476.363 1448.03,472.935 1441.91,469.614 1435.74,466.4 1429.51,463.294 1423.23,460.297 1416.89,457.411 1410.51,454.635 1404.08,451.972 1397.6,449.421 1391.08,446.983 1384.52,444.659 1377.92,442.451 1371.28,440.358 1364.61,438.381 1357.9,436.521 1351.16,434.778 1344.39,433.153 1337.6,431.646 1330.78,430.259 1323.93,428.99 1317.07,427.841 1310.18,426.812 1303.28,425.904 1296.36,425.116 1289.44,424.449 1282.5,423.903 1275.55,423.478 1268.6,423.174 1261.64,422.992 1254.68,422.931 1247.72,422.992 1240.76,423.174 1233.8,423.478 1226.86,423.903 1219.92,424.449 1212.99,425.116 1206.07,425.904 1199.17,426.812 1192.29,427.841 1185.42,428.99 1178.58,430.259 1171.76,431.646 1164.96,433.153 1158.19,434.778 1151.46,436.521 1144.75,438.381 1138.07,440.358 1131.44,442.451 1124.83,444.659 1118.27,446.983 1111.75,449.421 1105.28,451.972 1098.85,454.635 1092.46,457.411 1086.13,460.297 1079.85,463.294 1073.62,466.4 1067.44,469.614 1061.33,472.935 1055.27,476.363 1049.27,479.896 1043.34,483.532 1037.46,487.272 1031.66,491.114 1025.92,495.057 1020.26,499.099 1014.66,503.239 1009.14,507.476 1003.69,511.81 998.321,516.237 993.028,520.758 987.815,525.37 982.683,530.072 977.634,534.864 972.67,539.742 967.791,544.707 962.999,549.756 958.297,554.888 953.685,560.101 949.164,565.394 944.737,570.765 940.404,576.213 936.166,581.735 932.026,587.33 927.984,592.997 924.041,598.733 920.2,604.538 916.46,610.408 912.823,616.343 909.29,622.341 905.862,628.399 902.541,634.516 899.327,640.69 896.221,646.919 893.225,653.202 890.338,659.536 887.562,665.919 884.899,672.35 882.348,678.826 879.91,685.346 877.587,691.907 875.378,698.508 873.285,705.147 871.308,711.821 869.448,718.528 867.705,725.267 866.08,732.035 864.573,738.831 863.186,745.652 861.917,752.496 860.768,759.361 859.74,766.245 858.831,773.146 858.043,780.062 857.376,786.991 856.83,793.93 856.405,800.877 856.101,807.831 855.919,814.79 855.858,821.75 855.919,828.71 856.101,835.669 856.405,842.622 856.83,849.57 857.376,856.509 858.043,863.438 858.831,870.354 859.74,877.255 860.768,884.139 861.917,891.004 863.186,897.848 864.573,904.669 866.08,911.465 867.705,918.233 869.448,924.972 871.308,931.679 873.285,938.353 875.378,944.992 877.587,951.593 879.91,958.154 882.348,964.674 884.899,971.15 887.562,977.581 890.338,983.964 893.225,990.298 896.221,996.581 899.327,1002.81 902.541,1008.98 905.862,1015.1 909.29,1021.16 912.823,1027.16 916.46,1033.09 920.2,1038.96 924.041,1044.77 927.984,1050.5 932.026,1056.17 936.166,1061.77 940.404,1067.29 944.737,1072.73 949.164,1078.11 953.685,1083.4 958.297,1088.61 962.999,1093.74 967.791,1098.79 972.67,1103.76 977.634,1108.64 982.683,1113.43 987.815,1118.13 993.028,1122.74 998.321,1127.26 1003.69,1131.69 1009.14,1136.02 1014.66,1140.26 1020.26,1144.4 1025.92,1148.44 1031.66,1152.39 1037.46,1156.23 1043.34,1159.97 1049.27,1163.6 1055.27,1167.14 1061.33,1170.56 1067.44,1173.89 1073.62,1177.1 1079.85,1180.21 1086.13,1183.2 1092.46,1186.09 1098.85,1188.86 1105.28,1191.53 1111.75,1194.08 1118.27,1196.52 1124.83,1198.84 1131.44,1201.05 1138.07,1203.14 1144.75,1205.12 1151.46,1206.98 1158.19,1208.72 1164.96,1210.35 1171.76,1211.85 1178.58,1213.24 1185.42,1214.51 1192.29,1215.66 1199.17,1216.69 1206.07,1217.6 1212.99,1218.38 1219.92,1219.05 1226.86,1219.6 1233.8,1220.02 1240.76,1220.33 1247.72,1220.51 1254.68,1220.57 1261.64,1220.51 1268.6,1220.33 1275.55,1220.02 1282.5,1219.6 1289.44,1219.05 1296.36,1218.38 1303.28,1217.6 1310.18,1216.69 1317.07,1215.66 1323.93,1214.51 1330.78,1213.24 1337.6,1211.85 1344.39,1210.35 1351.16,1208.72 1357.9,1206.98 1364.61,1205.12 1371.28,1203.14 1377.92,1201.05 1384.52,1198.84 1391.08,1196.52 1397.6,1194.08 1404.08,1191.53 1410.51,1188.86 1416.89,1186.09 1423.23,1183.2 1429.51,1180.21 1435.74,1177.1 1441.91,1173.89 1448.03,1170.56 1454.09,1167.14 1460.08,1163.6 1466.02,1159.97 1471.89,1156.23 1477.69,1152.39 1483.43,1148.44 1489.1,1144.4 1494.69,1140.26 1500.21,1136.02 1505.66,1131.69 1511.03,1127.26 1516.33,1122.74 1521.54,1118.13 1526.67,1113.43 1531.72,1108.64 1536.68,1103.76 1541.56,1098.79 1546.35,1093.74 1551.06,1088.61 1555.67,1083.4 1560.19,1078.11 1564.62,1072.73 1568.95,1067.29 1573.19,1061.77 1577.33,1056.17 1581.37,1050.5 1585.31,1044.77 1589.15,1038.96 1592.89,1033.09 1596.53,1027.16 1600.06,1021.16 1603.49,1015.1 1606.81,1008.98 1610.03,1002.81 1613.13,996.581 1616.13,990.298 1619.02,983.964 1621.79,977.581 1624.46,971.15 1627.01,964.674 1629.44,958.154 1631.77,951.593 1633.98,944.992 1636.07,938.353 1638.05,931.679 1639.91,924.972 1641.65,918.233 1643.27,911.465 1644.78,904.669 1646.17,897.848 1647.44,891.004 1648.59,884.139 1649.61,877.255 1650.52,870.354 1651.31,863.438 1651.98,856.509 1652.52,849.57 1652.95,842.622 1653.25,835.669 1653.44,828.71 "/>
<polyline clip-path="url(#clip843)" style="stroke:#000000; stroke-linecap:round; stroke-linejoin:round; stroke-width:2; stroke-opacity:0.1; fill:none" points="1786.44,821.75 1786.35,812.469 1786.11,803.192 1785.71,793.92 1785.14,784.656 1784.41,775.404 1783.52,766.166 1782.47,756.945 1781.26,747.743 1779.89,738.565 1778.36,729.411 1776.67,720.286 1774.82,711.191 1772.81,702.13 1770.64,693.106 1768.32,684.121 1765.84,675.177 1763.2,666.279 1760.41,657.428 1757.46,648.626 1754.37,639.878 1751.12,631.185 1747.71,622.55 1744.16,613.975 1740.46,605.464 1736.61,597.019 1732.62,588.642 1728.48,580.337 1724.19,572.104 1719.76,563.948 1715.19,555.871 1710.48,547.874 1705.63,539.961 1700.65,532.134 1695.52,524.394 1690.27,516.746 1684.88,509.19 1679.36,501.73 1673.71,494.367 1667.93,487.104 1662.03,479.942 1656,472.885 1649.85,465.934 1643.58,459.092 1637.19,452.36 1630.69,445.74 1624.07,439.235 1617.34,432.846 1610.49,426.576 1603.54,420.427 1596.48,414.399 1589.32,408.496 1582.06,402.719 1574.7,397.069 1567.24,391.548 1559.68,386.159 1552.03,380.902 1544.29,375.78 1536.47,370.793 1528.55,365.944 1520.56,361.234 1512.48,356.664 1504.32,352.235 1496.09,347.95 1487.78,343.809 1479.41,339.813 1470.96,335.964 1462.45,332.264 1453.88,328.712 1445.24,325.311 1436.55,322.061 1427.8,318.963 1419,316.018 1410.15,313.227 1401.25,310.591 1392.31,308.111 1383.32,305.787 1374.3,303.62 1365.24,301.612 1356.14,299.761 1347.02,298.07 1337.86,296.538 1328.68,295.167 1319.48,293.955 1310.26,292.905 1301.02,292.015 1291.77,291.287 1282.51,290.72 1273.24,290.316 1263.96,290.073 1254.68,289.992 1245.4,290.073 1236.12,290.316 1226.85,290.72 1217.58,291.287 1208.33,292.015 1199.09,292.905 1189.87,293.955 1180.67,295.167 1171.49,296.538 1162.34,298.07 1153.21,299.761 1144.12,301.612 1135.06,303.62 1126.03,305.787 1117.05,308.111 1108.1,310.591 1099.21,313.227 1090.35,316.018 1081.55,318.963 1072.81,322.061 1064.11,325.311 1055.48,328.712 1046.9,332.264 1038.39,335.964 1029.95,339.813 1021.57,343.809 1013.26,347.95 1005.03,352.235 996.876,356.664 988.798,361.234 980.801,365.944 972.888,370.793 965.061,375.78 957.322,380.902 949.673,386.159 942.117,391.548 934.657,397.069 927.294,402.719 920.031,408.496 912.869,414.399 905.812,420.427 898.861,426.576 892.019,432.846 885.287,439.235 878.667,445.74 872.162,452.36 865.774,459.092 859.504,465.934 853.354,472.885 847.327,479.942 841.423,487.104 835.646,494.367 829.996,501.73 824.476,509.19 819.086,516.746 813.829,524.394 808.707,532.134 803.72,539.961 798.871,547.874 794.161,555.871 789.591,563.948 785.162,572.104 780.877,580.337 776.736,588.642 772.74,597.019 768.892,605.464 765.191,613.975 761.639,622.55 758.238,631.185 754.988,639.878 751.89,648.626 748.945,657.428 746.154,666.279 743.518,675.177 741.038,684.121 738.714,693.106 736.548,702.13 734.539,711.191 732.689,720.286 730.997,729.411 729.466,738.565 728.094,747.743 726.882,756.945 725.832,766.166 724.942,775.404 724.214,784.656 723.647,793.92 723.243,803.192 723,812.469 722.919,821.75 723,831.03 723.243,840.308 723.647,849.58 724.214,858.844 724.942,868.096 725.832,877.334 726.882,886.555 728.094,895.756 729.466,904.935 730.997,914.089 732.689,923.214 734.539,932.309 736.548,941.37 738.714,950.394 741.038,959.379 743.518,968.322 746.154,977.221 748.945,986.072 751.89,994.874 754.988,1003.62 758.238,1012.32 761.639,1020.95 765.191,1029.52 768.892,1038.04 772.74,1046.48 776.736,1054.86 780.877,1063.16 785.162,1071.4 789.591,1079.55 794.161,1087.63 798.871,1095.63 803.72,1103.54 808.707,1111.37 813.829,1119.11 819.086,1126.75 824.476,1134.31 829.996,1141.77 835.646,1149.13 841.423,1156.4 847.327,1163.56 853.354,1170.61 859.504,1177.57 865.774,1184.41 872.162,1191.14 878.667,1197.76 885.287,1204.26 892.019,1210.65 898.861,1216.92 905.812,1223.07 912.869,1229.1 920.031,1235 927.294,1240.78 934.657,1246.43 942.117,1251.95 949.673,1257.34 957.322,1262.6 965.061,1267.72 972.888,1272.71 980.801,1277.56 988.798,1282.27 996.876,1286.84 1005.03,1291.26 1013.26,1295.55 1021.57,1299.69 1029.95,1303.69 1038.39,1307.54 1046.9,1311.24 1055.48,1314.79 1064.11,1318.19 1072.81,1321.44 1081.55,1324.54 1090.35,1327.48 1099.21,1330.27 1108.1,1332.91 1117.05,1335.39 1126.03,1337.71 1135.06,1339.88 1144.12,1341.89 1153.21,1343.74 1162.34,1345.43 1171.49,1346.96 1180.67,1348.33 1189.87,1349.54 1199.09,1350.6 1208.33,1351.48 1217.58,1352.21 1226.85,1352.78 1236.12,1353.18 1245.4,1353.43 1254.68,1353.51 1263.96,1353.43 1273.24,1353.18 1282.51,1352.78 1291.77,1352.21 1301.02,1351.48 1310.26,1350.6 1319.48,1349.54 1328.68,1348.33 1337.86,1346.96 1347.02,1345.43 1356.14,1343.74 1365.24,1341.89 1374.3,1339.88 1383.32,1337.71 1392.31,1335.39 1401.25,1332.91 1410.15,1330.27 1419,1327.48 1427.8,1324.54 1436.55,1321.44 1445.24,1318.19 1453.88,1314.79 1462.45,1311.24 1470.96,1307.54 1479.41,1303.69 1487.78,1299.69 1496.09,1295.55 1504.32,1291.26 1512.48,1286.84 1520.56,1282.27 1528.55,1277.56 1536.47,1272.71 1544.29,1267.72 1552.03,1262.6 1559.68,1257.34 1567.24,1251.95 1574.7,1246.43 1582.06,1240.78 1589.32,1235 1596.48,1229.1 1603.54,1223.07 1610.49,1216.92 1617.34,1210.65 1624.07,1204.26 1630.69,1197.76 1637.19,1191.14 1643.58,1184.41 1649.85,1177.57 1656,1170.61 1662.03,1163.56 1667.93,1156.4 1673.71,1149.13 1679.36,1141.77 1684.88,1134.31 1690.27,1126.75 1695.52,1119.11 1700.65,1111.37 1705.63,1103.54 1710.48,1095.63 1715.19,1087.63 1719.76,1079.55 1724.19,1071.4 1728.48,1063.16 1732.62,1054.86 1736.61,1046.48 1740.46,1038.04 1744.16,1029.52 1747.71,1020.95 1751.12,1012.32 1754.37,1003.62 1757.46,994.874 1760.41,986.072 1763.2,977.221 1765.84,968.322 1768.32,959.379 1770.64,950.394 1772.81,941.37 1774.82,932.309 1776.67,923.214 1778.36,914.089 1779.89,904.935 1781.26,895.756 1782.47,886.555 1783.52,877.334 1784.41,868.096 1785.14,858.844 1785.71,849.58 1786.11,840.308 1786.35,831.03 "/>
<polyline clip-path="url(#clip843)" style="stroke:#000000; stroke-linecap:round; stroke-linejoin:round; stroke-width:2; stroke-opacity:0.1; fill:none" points="1919.38,821.75 1919.27,810.149 1918.97,798.552 1918.46,786.962 1917.76,775.383 1916.85,763.818 1915.73,752.27 1914.42,740.744 1912.91,729.242 1911.19,717.768 1909.28,706.326 1907.16,694.92 1904.85,683.551 1902.34,672.225 1899.63,660.945 1896.73,649.713 1893.63,638.534 1890.33,627.411 1886.84,616.347 1883.16,605.345 1879.29,594.41 1875.23,583.543 1870.97,572.75 1866.53,562.032 1861.91,551.393 1857.1,540.836 1852.1,530.366 1846.93,519.983 1841.57,509.693 1836.03,499.498 1830.32,489.401 1824.43,479.405 1818.37,469.514 1812.14,459.729 1805.74,450.056 1799.17,440.495 1792.43,431.05 1785.53,421.725 1778.47,412.521 1771.24,403.442 1763.87,394.49 1756.33,385.669 1748.64,376.98 1740.81,368.427 1732.82,360.012 1724.69,351.737 1716.42,343.606 1708,335.621 1699.45,327.783 1690.76,320.096 1681.94,312.562 1672.99,305.183 1663.91,297.961 1654.7,290.899 1645.38,283.998 1635.93,277.261 1626.37,270.69 1616.7,264.287 1606.91,258.054 1597.02,251.993 1587.03,246.105 1576.93,240.392 1566.73,234.856 1556.44,229.5 1546.06,224.323 1535.59,219.329 1525.03,214.518 1514.4,209.892 1503.68,205.453 1492.88,201.201 1482.02,197.138 1471.08,193.266 1460.08,189.585 1449.02,186.096 1437.89,182.801 1426.71,179.701 1415.48,176.796 1404.2,174.088 1392.88,171.577 1381.51,169.264 1370.1,167.15 1358.66,165.236 1347.19,163.521 1335.68,162.007 1324.16,160.693 1312.61,159.581 1301.04,158.671 1289.46,157.963 1277.87,157.457 1266.28,157.153 1254.68,157.052 1243.08,157.153 1231.48,157.457 1219.89,157.963 1208.31,158.671 1196.74,159.581 1185.2,160.693 1173.67,162.007 1162.17,163.521 1150.7,165.236 1139.25,167.15 1127.85,169.264 1116.48,171.577 1105.15,174.088 1093.87,176.796 1082.64,179.701 1071.46,182.801 1060.34,186.096 1049.27,189.585 1038.27,193.266 1027.34,197.138 1016.47,201.201 1005.68,205.453 994.959,209.892 984.32,214.518 973.764,219.329 963.293,224.323 952.911,229.5 942.62,234.856 932.425,240.392 922.328,246.105 912.332,251.993 902.441,258.054 892.657,264.287 882.983,270.69 873.422,277.261 863.977,283.998 854.652,290.899 845.448,297.961 836.369,305.183 827.417,312.562 818.596,320.096 809.907,327.783 801.354,335.621 792.939,343.606 784.665,351.737 776.533,360.012 768.548,368.427 760.71,376.98 753.023,385.669 745.489,394.49 738.11,403.442 730.888,412.521 723.826,421.725 716.925,431.05 710.188,440.495 703.617,450.056 697.214,459.729 690.981,469.514 684.92,479.405 679.032,489.401 673.319,499.498 667.784,509.693 662.427,519.983 657.251,530.366 652.256,540.836 647.445,551.393 642.819,562.032 638.38,572.75 634.128,583.543 630.065,594.41 626.193,605.345 622.512,616.347 619.023,627.411 615.728,638.534 612.628,649.713 609.723,660.945 607.015,672.225 604.504,683.551 602.191,694.92 600.077,706.326 598.163,717.768 596.448,729.242 594.934,740.744 593.62,752.27 592.508,763.818 591.598,775.383 590.89,786.962 590.384,798.552 590.08,810.149 589.979,821.75 590.08,833.351 590.384,844.948 590.89,856.538 591.598,868.117 592.508,879.682 593.62,891.23 594.934,902.756 596.448,914.258 598.163,925.732 600.077,937.174 602.191,948.58 604.504,959.948 607.015,971.274 609.723,982.555 612.628,993.786 615.728,1004.97 619.023,1016.09 622.512,1027.15 626.193,1038.15 630.065,1049.09 634.128,1059.96 638.38,1070.75 642.819,1081.47 647.445,1092.11 652.256,1102.66 657.251,1113.13 662.427,1123.52 667.784,1133.81 673.319,1144 679.032,1154.1 684.92,1164.09 690.981,1173.99 697.214,1183.77 703.617,1193.44 710.188,1203.01 716.925,1212.45 723.826,1221.78 730.888,1230.98 738.11,1240.06 745.489,1249.01 753.023,1257.83 760.71,1266.52 768.548,1275.07 776.533,1283.49 784.665,1291.76 792.939,1299.89 801.354,1307.88 809.907,1315.72 818.596,1323.4 827.417,1330.94 836.369,1338.32 845.448,1345.54 854.652,1352.6 863.977,1359.5 873.422,1366.24 882.983,1372.81 892.657,1379.21 902.441,1385.45 912.332,1391.51 922.328,1397.4 932.425,1403.11 942.62,1408.64 952.911,1414 963.293,1419.18 973.764,1424.17 984.32,1428.98 994.959,1433.61 1005.68,1438.05 1016.47,1442.3 1027.34,1446.36 1038.27,1450.23 1049.27,1453.92 1060.34,1457.4 1071.46,1460.7 1082.64,1463.8 1093.87,1466.7 1105.15,1469.41 1116.48,1471.92 1127.85,1474.24 1139.25,1476.35 1150.7,1478.26 1162.17,1479.98 1173.67,1481.49 1185.2,1482.81 1196.74,1483.92 1208.31,1484.83 1219.89,1485.54 1231.48,1486.04 1243.08,1486.35 1254.68,1486.45 1266.28,1486.35 1277.87,1486.04 1289.46,1485.54 1301.04,1484.83 1312.61,1483.92 1324.16,1482.81 1335.68,1481.49 1347.19,1479.98 1358.66,1478.26 1370.1,1476.35 1381.51,1474.24 1392.88,1471.92 1404.2,1469.41 1415.48,1466.7 1426.71,1463.8 1437.89,1460.7 1449.02,1457.4 1460.08,1453.92 1471.08,1450.23 1482.02,1446.36 1492.88,1442.3 1503.68,1438.05 1514.4,1433.61 1525.03,1428.98 1535.59,1424.17 1546.06,1419.18 1556.44,1414 1566.73,1408.64 1576.93,1403.11 1587.03,1397.4 1597.02,1391.51 1606.91,1385.45 1616.7,1379.21 1626.37,1372.81 1635.93,1366.24 1645.38,1359.5 1654.7,1352.6 1663.91,1345.54 1672.99,1338.32 1681.94,1330.94 1690.76,1323.4 1699.45,1315.72 1708,1307.88 1716.42,1299.89 1724.69,1291.76 1732.82,1283.49 1740.81,1275.07 1748.64,1266.52 1756.33,1257.83 1763.87,1249.01 1771.24,1240.06 1778.47,1230.98 1785.53,1221.78 1792.43,1212.45 1799.17,1203.01 1805.74,1193.44 1812.14,1183.77 1818.37,1173.99 1824.43,1164.09 1830.32,1154.1 1836.03,1144 1841.57,1133.81 1846.93,1123.52 1852.1,1113.13 1857.1,1102.66 1861.91,1092.11 1866.53,1081.47 1870.97,1070.75 1875.23,1059.96 1879.29,1049.09 1883.16,1038.15 1886.84,1027.15 1890.33,1016.09 1893.63,1004.97 1896.73,993.786 1899.63,982.555 1902.34,971.274 1904.85,959.948 1907.16,948.58 1909.28,937.174 1911.19,925.732 1912.91,914.258 1914.42,902.756 1915.73,891.23 1916.85,879.682 1917.76,868.117 1918.46,856.538 1918.97,844.948 1919.27,833.351 "/>
<polyline clip-path="url(#clip843)" style="stroke:#000000; stroke-linecap:round; stroke-linejoin:round; stroke-width:2; stroke-opacity:0.1; fill:none" points="1919.38,821.75 1919.27,810.149 1918.97,798.552 1918.46,786.962 1917.76,775.383 1916.85,763.818 1915.73,752.27 1914.42,740.744 1912.91,729.242 1911.19,717.768 1909.28,706.326 1907.16,694.92 1904.85,683.551 1902.34,672.225 1899.63,660.945 1896.73,649.713 1893.63,638.534 1890.33,627.411 1886.84,616.347 1883.16,605.345 1879.29,594.41 1875.23,583.543 1870.97,572.75 1866.53,562.032 1861.91,551.393 1857.1,540.836 1852.1,530.366 1846.93,519.983 1841.57,509.693 1836.03,499.498 1830.32,489.401 1824.43,479.405 1818.37,469.514 1812.14,459.729 1805.74,450.056 1799.17,440.495 1792.43,431.05 1785.53,421.725 1778.47,412.521 1771.24,403.442 1763.87,394.49 1756.33,385.669 1748.64,376.98 1740.81,368.427 1732.82,360.012 1724.69,351.737 1716.42,343.606 1708,335.621 1699.45,327.783 1690.76,320.096 1681.94,312.562 1672.99,305.183 1663.91,297.961 1654.7,290.899 1645.38,283.998 1635.93,277.261 1626.37,270.69 1616.7,264.287 1606.91,258.054 1597.02,251.993 1587.03,246.105 1576.93,240.392 1566.73,234.856 1556.44,229.5 1546.06,224.323 1535.59,219.329 1525.03,214.518 1514.4,209.892 1503.68,205.453 1492.88,201.201 1482.02,197.138 1471.08,193.266 1460.08,189.585 1449.02,186.096 1437.89,182.801 1426.71,179.701 1415.48,176.796 1404.2,174.088 1392.88,171.577 1381.51,169.264 1370.1,167.15 1358.66,165.236 1347.19,163.521 1335.68,162.007 1324.16,160.693 1312.61,159.581 1301.04,158.671 1289.46,157.963 1277.87,157.457 1266.28,157.153 1254.68,157.052 1243.08,157.153 1231.48,157.457 1219.89,157.963 1208.31,158.671 1196.74,159.581 1185.2,160.693 1173.67,162.007 1162.17,163.521 1150.7,165.236 1139.25,167.15 1127.85,169.264 1116.48,171.577 1105.15,174.088 1093.87,176.796 1082.64,179.701 1071.46,182.801 1060.34,186.096 1049.27,189.585 1038.27,193.266 1027.34,197.138 1016.47,201.201 1005.68,205.453 994.959,209.892 984.32,214.518 973.764,219.329 963.293,224.323 952.911,229.5 942.62,234.856 932.425,240.392 922.328,246.105 912.332,251.993 902.441,258.054 892.657,264.287 882.983,270.69 873.422,277.261 863.977,283.998 854.652,290.899 845.448,297.961 836.369,305.183 827.417,312.562 818.596,320.096 809.907,327.783 801.354,335.621 792.939,343.606 784.665,351.737 776.533,360.012 768.548,368.427 760.71,376.98 753.023,385.669 745.489,394.49 738.11,403.442 730.888,412.521 723.826,421.725 716.925,431.05 710.188,440.495 703.617,450.056 697.214,459.729 690.981,469.514 684.92,479.405 679.032,489.401 673.319,499.498 667.784,509.693 662.427,519.983 657.251,530.366 652.256,540.836 647.445,551.393 642.819,562.032 638.38,572.75 634.128,583.543 630.065,594.41 626.193,605.345 622.512,616.347 619.023,627.411 615.728,638.534 612.628,649.713 609.723,660.945 607.015,672.225 604.504,683.551 602.191,694.92 600.077,706.326 598.163,717.768 596.448,729.242 594.934,740.744 593.62,752.27 592.508,763.818 591.598,775.383 590.89,786.962 590.384,798.552 590.08,810.149 589.979,821.75 590.08,833.351 590.384,844.948 590.89,856.538 591.598,868.117 592.508,879.682 593.62,891.23 594.934,902.756 596.448,914.258 598.163,925.732 600.077,937.174 602.191,948.58 604.504,959.948 607.015,971.274 609.723,982.555 612.628,993.786 615.728,1004.97 619.023,1016.09 622.512,1027.15 626.193,1038.15 630.065,1049.09 634.128,1059.96 638.38,1070.75 642.819,1081.47 647.445,1092.11 652.256,1102.66 657.251,1113.13 662.427,1123.52 667.784,1133.81 673.319,1144 679.032,1154.1 684.92,1164.09 690.981,1173.99 697.214,1183.77 703.617,1193.44 710.188,1203.01 716.925,1212.45 723.826,1221.78 730.888,1230.98 738.11,1240.06 745.489,1249.01 753.023,1257.83 760.71,1266.52 768.548,1275.07 776.533,1283.49 784.665,1291.76 792.939,1299.89 801.354,1307.88 809.907,1315.72 818.596,1323.4 827.417,1330.94 836.369,1338.32 845.448,1345.54 854.652,1352.6 863.977,1359.5 873.422,1366.24 882.983,1372.81 892.657,1379.21 902.441,1385.45 912.332,1391.51 922.328,1397.4 932.425,1403.11 942.62,1408.64 952.911,1414 963.293,1419.18 973.764,1424.17 984.32,1428.98 994.959,1433.61 1005.68,1438.05 1016.47,1442.3 1027.34,1446.36 1038.27,1450.23 1049.27,1453.92 1060.34,1457.4 1071.46,1460.7 1082.64,1463.8 1093.87,1466.7 1105.15,1469.41 1116.48,1471.92 1127.85,1474.24 1139.25,1476.35 1150.7,1478.26 1162.17,1479.98 1173.67,1481.49 1185.2,1482.81 1196.74,1483.92 1208.31,1484.83 1219.89,1485.54 1231.48,1486.04 1243.08,1486.35 1254.68,1486.45 1266.28,1486.35 1277.87,1486.04 1289.46,1485.54 1301.04,1484.83 1312.61,1483.92 1324.16,1482.81 1335.68,1481.49 1347.19,1479.98 1358.66,1478.26 1370.1,1476.35 1381.51,1474.24 1392.88,1471.92 1404.2,1469.41 1415.48,1466.7 1426.71,1463.8 1437.89,1460.7 1449.02,1457.4 1460.08,1453.92 1471.08,1450.23 1482.02,1446.36 1492.88,1442.3 1503.68,1438.05 1514.4,1433.61 1525.03,1428.98 1535.59,1424.17 1546.06,1419.18 1556.44,1414 1566.73,1408.64 1576.93,1403.11 1587.03,1397.4 1597.02,1391.51 1606.91,1385.45 1616.7,1379.21 1626.37,1372.81 1635.93,1366.24 1645.38,1359.5 1654.7,1352.6 1663.91,1345.54 1672.99,1338.32 1681.94,1330.94 1690.76,1323.4 1699.45,1315.72 1708,1307.88 1716.42,1299.89 1724.69,1291.76 1732.82,1283.49 1740.81,1275.07 1748.64,1266.52 1756.33,1257.83 1763.87,1249.01 1771.24,1240.06 1778.47,1230.98 1785.53,1221.78 1792.43,1212.45 1799.17,1203.01 1805.74,1193.44 1812.14,1183.77 1818.37,1173.99 1824.43,1164.09 1830.32,1154.1 1836.03,1144 1841.57,1133.81 1846.93,1123.52 1852.1,1113.13 1857.1,1102.66 1861.91,1092.11 1866.53,1081.47 1870.97,1070.75 1875.23,1059.96 1879.29,1049.09 1883.16,1038.15 1886.84,1027.15 1890.33,1016.09 1893.63,1004.97 1896.73,993.786 1899.63,982.555 1902.34,971.274 1904.85,959.948 1907.16,948.58 1909.28,937.174 1911.19,925.732 1912.91,914.258 1914.42,902.756 1915.73,891.23 1916.85,879.682 1917.76,868.117 1918.46,856.538 1918.97,844.948 1919.27,833.351 "/>
<polyline clip-path="url(#clip843)" style="stroke:#ededed; stroke-linecap:round; stroke-linejoin:round; stroke-width:2; stroke-opacity:1; fill:none" points="1919.38,821.75 1919.27,810.149 1918.97,798.552 1918.46,786.962 1917.76,775.383 1916.85,763.818 1915.73,752.27 1914.42,740.744 1912.91,729.242 1911.19,717.768 1909.28,706.326 1907.16,694.92 1904.85,683.551 1902.34,672.225 1899.63,660.945 1896.73,649.713 1893.63,638.534 1890.33,627.411 1886.84,616.347 1883.16,605.345 1879.29,594.41 1875.23,583.543 1870.97,572.75 1866.53,562.032 1861.91,551.393 1857.1,540.836 1852.1,530.366 1846.93,519.983 1841.57,509.693 1836.03,499.498 1830.32,489.401 1824.43,479.405 1818.37,469.514 1812.14,459.729 1805.74,450.056 1799.17,440.495 1792.43,431.05 1785.53,421.725 1778.47,412.521 1771.24,403.442 1763.87,394.49 1756.33,385.669 1748.64,376.98 1740.81,368.427 1732.82,360.012 1724.69,351.737 1716.42,343.606 1708,335.621 1699.45,327.783 1690.76,320.096 1681.94,312.562 1672.99,305.183 1663.91,297.961 1654.7,290.899 1645.38,283.998 1635.93,277.261 1626.37,270.69 1616.7,264.287 1606.91,258.054 1597.02,251.993 1587.03,246.105 1576.93,240.392 1566.73,234.856 1556.44,229.5 1546.06,224.323 1535.59,219.329 1525.03,214.518 1514.4,209.892 1503.68,205.453 1492.88,201.201 1482.02,197.138 1471.08,193.266 1460.08,189.585 1449.02,186.096 1437.89,182.801 1426.71,179.701 1415.48,176.796 1404.2,174.088 1392.88,171.577 1381.51,169.264 1370.1,167.15 1358.66,165.236 1347.19,163.521 1335.68,162.007 1324.16,160.693 1312.61,159.581 1301.04,158.671 1289.46,157.963 1277.87,157.457 1266.28,157.153 1254.68,157.052 1243.08,157.153 1231.48,157.457 1219.89,157.963 1208.31,158.671 1196.74,159.581 1185.2,160.693 1173.67,162.007 1162.17,163.521 1150.7,165.236 1139.25,167.15 1127.85,169.264 1116.48,171.577 1105.15,174.088 1093.87,176.796 1082.64,179.701 1071.46,182.801 1060.34,186.096 1049.27,189.585 1038.27,193.266 1027.34,197.138 1016.47,201.201 1005.68,205.453 994.959,209.892 984.32,214.518 973.764,219.329 963.293,224.323 952.911,229.5 942.62,234.856 932.425,240.392 922.328,246.105 912.332,251.993 902.441,258.054 892.657,264.287 882.983,270.69 873.422,277.261 863.977,283.998 854.652,290.899 845.448,297.961 836.369,305.183 827.417,312.562 818.596,320.096 809.907,327.783 801.354,335.621 792.939,343.606 784.665,351.737 776.533,360.012 768.548,368.427 760.71,376.98 753.023,385.669 745.489,394.49 738.11,403.442 730.888,412.521 723.826,421.725 716.925,431.05 710.188,440.495 703.617,450.056 697.214,459.729 690.981,469.514 684.92,479.405 679.032,489.401 673.319,499.498 667.784,509.693 662.427,519.983 657.251,530.366 652.256,540.836 647.445,551.393 642.819,562.032 638.38,572.75 634.128,583.543 630.065,594.41 626.193,605.345 622.512,616.347 619.023,627.411 615.728,638.534 612.628,649.713 609.723,660.945 607.015,672.225 604.504,683.551 602.191,694.92 600.077,706.326 598.163,717.768 596.448,729.242 594.934,740.744 593.62,752.27 592.508,763.818 591.598,775.383 590.89,786.962 590.384,798.552 590.08,810.149 589.979,821.75 590.08,833.351 590.384,844.948 590.89,856.538 591.598,868.117 592.508,879.682 593.62,891.23 594.934,902.756 596.448,914.258 598.163,925.732 600.077,937.174 602.191,948.58 604.504,959.948 607.015,971.274 609.723,982.555 612.628,993.786 615.728,1004.97 619.023,1016.09 622.512,1027.15 626.193,1038.15 630.065,1049.09 634.128,1059.96 638.38,1070.75 642.819,1081.47 647.445,1092.11 652.256,1102.66 657.251,1113.13 662.427,1123.52 667.784,1133.81 673.319,1144 679.032,1154.1 684.92,1164.09 690.981,1173.99 697.214,1183.77 703.617,1193.44 710.188,1203.01 716.925,1212.45 723.826,1221.78 730.888,1230.98 738.11,1240.06 745.489,1249.01 753.023,1257.83 760.71,1266.52 768.548,1275.07 776.533,1283.49 784.665,1291.76 792.939,1299.89 801.354,1307.88 809.907,1315.72 818.596,1323.4 827.417,1330.94 836.369,1338.32 845.448,1345.54 854.652,1352.6 863.977,1359.5 873.422,1366.24 882.983,1372.81 892.657,1379.21 902.441,1385.45 912.332,1391.51 922.328,1397.4 932.425,1403.11 942.62,1408.64 952.911,1414 963.293,1419.18 973.764,1424.17 984.32,1428.98 994.959,1433.61 1005.68,1438.05 1016.47,1442.3 1027.34,1446.36 1038.27,1450.23 1049.27,1453.92 1060.34,1457.4 1071.46,1460.7 1082.64,1463.8 1093.87,1466.7 1105.15,1469.41 1116.48,1471.92 1127.85,1474.24 1139.25,1476.35 1150.7,1478.26 1162.17,1479.98 1173.67,1481.49 1185.2,1482.81 1196.74,1483.92 1208.31,1484.83 1219.89,1485.54 1231.48,1486.04 1243.08,1486.35 1254.68,1486.45 1266.28,1486.35 1277.87,1486.04 1289.46,1485.54 1301.04,1484.83 1312.61,1483.92 1324.16,1482.81 1335.68,1481.49 1347.19,1479.98 1358.66,1478.26 1370.1,1476.35 1381.51,1474.24 1392.88,1471.92 1404.2,1469.41 1415.48,1466.7 1426.71,1463.8 1437.89,1460.7 1449.02,1457.4 1460.08,1453.92 1471.08,1450.23 1482.02,1446.36 1492.88,1442.3 1503.68,1438.05 1514.4,1433.61 1525.03,1428.98 1535.59,1424.17 1546.06,1419.18 1556.44,1414 1566.73,1408.64 1576.93,1403.11 1587.03,1397.4 1597.02,1391.51 1606.91,1385.45 1616.7,1379.21 1626.37,1372.81 1635.93,1366.24 1645.38,1359.5 1654.7,1352.6 1663.91,1345.54 1672.99,1338.32 1681.94,1330.94 1690.76,1323.4 1699.45,1315.72 1708,1307.88 1716.42,1299.89 1724.69,1291.76 1732.82,1283.49 1740.81,1275.07 1748.64,1266.52 1756.33,1257.83 1763.87,1249.01 1771.24,1240.06 1778.47,1230.98 1785.53,1221.78 1792.43,1212.45 1799.17,1203.01 1805.74,1193.44 1812.14,1183.77 1818.37,1173.99 1824.43,1164.09 1830.32,1154.1 1836.03,1144 1841.57,1133.81 1846.93,1123.52 1852.1,1113.13 1857.1,1102.66 1861.91,1092.11 1866.53,1081.47 1870.97,1070.75 1875.23,1059.96 1879.29,1049.09 1883.16,1038.15 1886.84,1027.15 1890.33,1016.09 1893.63,1004.97 1896.73,993.786 1899.63,982.555 1902.34,971.274 1904.85,959.948 1907.16,948.58 1909.28,937.174 1911.19,925.732 1912.91,914.258 1914.42,902.756 1915.73,891.23 1916.85,879.682 1917.76,868.117 1918.46,856.538 1918.97,844.948 1919.27,833.351 "/>
<path clip-path="url(#clip840)" d="M1976.18 813.996 Q1972.57 813.996 1970.74 817.561 Q1968.93 821.103 1968.93 828.232 Q1968.93 835.339 1970.74 838.903 Q1972.57 842.445 1976.18 842.445 Q1979.81 842.445 1981.62 838.903 Q1983.45 835.339 1983.45 828.232 Q1983.45 821.103 1981.62 817.561 Q1979.81 813.996 1976.18 813.996 M1976.18 810.293 Q1981.99 810.293 1985.04 814.899 Q1988.12 819.482 1988.12 828.232 Q1988.12 836.959 1985.04 841.566 Q1981.99 846.149 1976.18 846.149 Q1970.37 846.149 1967.29 841.566 Q1964.23 836.959 1964.23 828.232 Q1964.23 819.482 1967.29 814.899 Q1970.37 810.293 1976.18 810.293 Z" fill="#000000" fill-rule="nonzero" fill-opacity="1" /><path clip-path="url(#clip840)" d="M1997.79 799.429 Q1995.01 799.429 1993.39 801.61 Q1991.77 803.773 1991.77 807.554 Q1991.77 811.334 1993.37 813.516 Q1994.99 815.679 1997.79 815.679 Q2000.55 815.679 2002.17 813.497 Q2003.79 811.315 2003.79 807.554 Q2003.79 803.811 2002.17 801.629 Q2000.55 799.429 1997.79 799.429 M1997.79 796.495 Q2002.3 796.495 2004.88 799.429 Q2007.46 802.363 2007.46 807.554 Q2007.46 812.726 2004.88 815.679 Q2002.3 818.613 1997.79 818.613 Q1993.26 818.613 1990.68 815.679 Q1988.12 812.726 1988.12 807.554 Q1988.12 802.363 1990.68 799.429 Q1993.26 796.495 1997.79 796.495 Z" fill="#000000" fill-rule="nonzero" fill-opacity="1" /><path clip-path="url(#clip840)" d="M1736.28 1343.86 Q1739.64 1344.57 1741.51 1346.84 Q1743.41 1349.11 1743.41 1352.44 Q1743.41 1357.56 1739.89 1360.36 Q1736.38 1363.16 1729.89 1363.16 Q1727.72 1363.16 1725.4 1362.72 Q1723.11 1362.31 1720.66 1361.45 L1720.66 1356.94 Q1722.6 1358.07 1724.92 1358.65 Q1727.23 1359.23 1729.76 1359.23 Q1734.15 1359.23 1736.44 1357.49 Q1738.76 1355.76 1738.76 1352.44 Q1738.76 1349.39 1736.61 1347.68 Q1734.48 1345.94 1730.66 1345.94 L1726.63 1345.94 L1726.63 1342.1 L1730.84 1342.1 Q1734.29 1342.1 1736.12 1340.73 Q1737.95 1339.34 1737.95 1336.75 Q1737.95 1334.09 1736.05 1332.68 Q1734.18 1331.24 1730.66 1331.24 Q1728.74 1331.24 1726.54 1331.66 Q1724.34 1332.07 1721.7 1332.95 L1721.7 1328.79 Q1724.36 1328.05 1726.68 1327.68 Q1729.01 1327.31 1731.07 1327.31 Q1736.4 1327.31 1739.5 1329.74 Q1742.6 1332.14 1742.6 1336.26 Q1742.6 1339.13 1740.96 1341.13 Q1739.32 1343.09 1736.28 1343.86 Z" fill="#000000" fill-rule="nonzero" fill-opacity="1" /><path clip-path="url(#clip840)" d="M1753.09 1358.56 L1760.73 1358.56 L1760.73 1332.19 L1752.42 1333.86 L1752.42 1329.6 L1760.68 1327.93 L1765.36 1327.93 L1765.36 1358.56 L1773 1358.56 L1773 1362.49 L1753.09 1362.49 L1753.09 1358.56 Z" fill="#000000" fill-rule="nonzero" fill-opacity="1" /><path clip-path="url(#clip840)" d="M1782.49 1327.93 L1800.84 1327.93 L1800.84 1331.87 L1786.77 1331.87 L1786.77 1340.34 Q1787.79 1339.99 1788.81 1339.83 Q1789.82 1339.64 1790.84 1339.64 Q1796.63 1339.64 1800.01 1342.82 Q1803.39 1345.99 1803.39 1351.4 Q1803.39 1356.98 1799.92 1360.08 Q1796.44 1363.16 1790.13 1363.16 Q1787.95 1363.16 1785.68 1362.79 Q1783.44 1362.42 1781.03 1361.68 L1781.03 1356.98 Q1783.11 1358.12 1785.33 1358.67 Q1787.56 1359.23 1790.03 1359.23 Q1794.04 1359.23 1796.38 1357.12 Q1798.71 1355.01 1798.71 1351.4 Q1798.71 1347.79 1796.38 1345.69 Q1794.04 1343.58 1790.03 1343.58 Q1788.16 1343.58 1786.28 1344 Q1784.43 1344.41 1782.49 1345.29 L1782.49 1327.93 Z" fill="#000000" fill-rule="nonzero" fill-opacity="1" /><path clip-path="url(#clip840)" d="M1813.06 1316.44 Q1810.27 1316.44 1808.66 1318.62 Q1807.04 1320.79 1807.04 1324.57 Q1807.04 1328.35 1808.64 1330.53 Q1810.25 1332.69 1813.06 1332.69 Q1815.82 1332.69 1817.44 1330.51 Q1819.06 1328.33 1819.06 1324.57 Q1819.06 1320.82 1817.44 1318.64 Q1815.82 1316.44 1813.06 1316.44 M1813.06 1313.51 Q1817.57 1313.51 1820.15 1316.44 Q1822.72 1319.38 1822.72 1324.57 Q1822.72 1329.74 1820.15 1332.69 Q1817.57 1335.63 1813.06 1335.63 Q1808.52 1335.63 1805.95 1332.69 Q1803.39 1329.74 1803.39 1324.57 Q1803.39 1319.38 1805.95 1316.44 Q1808.52 1313.51 1813.06 1313.51 Z" fill="#000000" fill-rule="nonzero" fill-opacity="1" /><path clip-path="url(#clip840)" d="M1208.7 1572.71 L1225.02 1572.71 L1225.02 1576.65 L1203.08 1576.65 L1203.08 1572.71 Q1205.74 1569.96 1210.32 1565.33 Q1214.93 1560.67 1216.11 1559.33 Q1218.35 1556.81 1219.23 1555.07 Q1220.14 1553.31 1220.14 1551.62 Q1220.14 1548.87 1218.19 1547.13 Q1216.27 1545.4 1213.17 1545.4 Q1210.97 1545.4 1208.52 1546.16 Q1206.09 1546.92 1203.31 1548.47 L1203.31 1543.75 Q1206.13 1542.62 1208.59 1542.04 Q1211.04 1541.46 1213.08 1541.46 Q1218.45 1541.46 1221.64 1544.15 Q1224.84 1546.83 1224.84 1551.32 Q1224.84 1553.45 1224.03 1555.37 Q1223.24 1557.27 1221.13 1559.86 Q1220.55 1560.53 1217.45 1563.75 Q1214.35 1566.95 1208.7 1572.71 Z" fill="#000000" fill-rule="nonzero" fill-opacity="1" /><path clip-path="url(#clip840)" d="M1233.66 1542.09 L1255.88 1542.09 L1255.88 1544.08 L1243.33 1576.65 L1238.45 1576.65 L1250.25 1546.02 L1233.66 1546.02 L1233.66 1542.09 Z" fill="#000000" fill-rule="nonzero" fill-opacity="1" /><path clip-path="url(#clip840)" d="M1275 1545.16 Q1271.39 1545.16 1269.56 1548.73 Q1267.75 1552.27 1267.75 1559.4 Q1267.75 1566.51 1269.56 1570.07 Q1271.39 1573.61 1275 1573.61 Q1278.63 1573.61 1280.44 1570.07 Q1282.27 1566.51 1282.27 1559.4 Q1282.27 1552.27 1280.44 1548.73 Q1278.63 1545.16 1275 1545.16 M1275 1541.46 Q1280.81 1541.46 1283.86 1546.07 Q1286.94 1550.65 1286.94 1559.4 Q1286.94 1568.13 1283.86 1572.73 Q1280.81 1577.32 1275 1577.32 Q1269.19 1577.32 1266.11 1572.73 Q1263.05 1568.13 1263.05 1559.4 Q1263.05 1550.65 1266.11 1546.07 Q1269.19 1541.46 1275 1541.46 Z" fill="#000000" fill-rule="nonzero" fill-opacity="1" /><path clip-path="url(#clip840)" d="M1296.61 1530.6 Q1293.83 1530.6 1292.21 1532.78 Q1290.59 1534.94 1290.59 1538.72 Q1290.59 1542.5 1292.19 1544.68 Q1293.81 1546.85 1296.61 1546.85 Q1299.37 1546.85 1300.99 1544.66 Q1302.61 1542.48 1302.61 1538.72 Q1302.61 1534.98 1300.99 1532.8 Q1299.37 1530.6 1296.61 1530.6 M1296.61 1527.66 Q1301.12 1527.66 1303.7 1530.6 Q1306.28 1533.53 1306.28 1538.72 Q1306.28 1543.89 1303.7 1546.85 Q1301.12 1549.78 1296.61 1549.78 Q1292.08 1549.78 1289.5 1546.85 Q1286.94 1543.89 1286.94 1538.72 Q1286.94 1533.53 1289.5 1530.6 Q1292.08 1527.66 1296.61 1527.66 Z" fill="#000000" fill-rule="nonzero" fill-opacity="1" /><path clip-path="url(#clip840)" d="M692.186 1358.56 L708.506 1358.56 L708.506 1362.49 L686.561 1362.49 L686.561 1358.56 Q689.223 1355.8 693.807 1351.17 Q698.413 1346.52 699.594 1345.18 Q701.839 1342.65 702.719 1340.92 Q703.621 1339.16 703.621 1337.47 Q703.621 1334.71 701.677 1332.98 Q699.756 1331.24 696.654 1331.24 Q694.455 1331.24 692.001 1332.01 Q689.57 1332.77 686.793 1334.32 L686.793 1329.6 Q689.617 1328.46 692.07 1327.88 Q694.524 1327.31 696.561 1327.31 Q701.932 1327.31 705.126 1329.99 Q708.32 1332.68 708.32 1337.17 Q708.32 1339.3 707.51 1341.22 Q706.723 1343.12 704.617 1345.71 Q704.038 1346.38 700.936 1349.6 Q697.834 1352.79 692.186 1358.56 Z" fill="#000000" fill-rule="nonzero" fill-opacity="1" /><path clip-path="url(#clip840)" d="M722.348 1358.56 L738.667 1358.56 L738.667 1362.49 L716.723 1362.49 L716.723 1358.56 Q719.385 1355.8 723.968 1351.17 Q728.575 1346.52 729.755 1345.18 Q732.001 1342.65 732.88 1340.92 Q733.783 1339.16 733.783 1337.47 Q733.783 1334.71 731.839 1332.98 Q729.917 1331.24 726.816 1331.24 Q724.617 1331.24 722.163 1332.01 Q719.732 1332.77 716.955 1334.32 L716.955 1329.6 Q719.779 1328.46 722.232 1327.88 Q724.686 1327.31 726.723 1327.31 Q732.093 1327.31 735.288 1329.99 Q738.482 1332.68 738.482 1337.17 Q738.482 1339.3 737.672 1341.22 Q736.885 1343.12 734.779 1345.71 Q734.2 1346.38 731.098 1349.6 Q727.996 1352.79 722.348 1358.56 Z" fill="#000000" fill-rule="nonzero" fill-opacity="1" /><path clip-path="url(#clip840)" d="M748.529 1327.93 L766.885 1327.93 L766.885 1331.87 L752.811 1331.87 L752.811 1340.34 Q753.829 1339.99 754.848 1339.83 Q755.866 1339.64 756.885 1339.64 Q762.672 1339.64 766.052 1342.82 Q769.431 1345.99 769.431 1351.4 Q769.431 1356.98 765.959 1360.08 Q762.487 1363.16 756.167 1363.16 Q753.991 1363.16 751.723 1362.79 Q749.478 1362.42 747.07 1361.68 L747.07 1356.98 Q749.154 1358.12 751.376 1358.67 Q753.598 1359.23 756.075 1359.23 Q760.079 1359.23 762.417 1357.12 Q764.755 1355.01 764.755 1351.4 Q764.755 1347.79 762.417 1345.69 Q760.079 1343.58 756.075 1343.58 Q754.2 1343.58 752.325 1344 Q750.473 1344.41 748.529 1345.29 L748.529 1327.93 Z" fill="#000000" fill-rule="nonzero" fill-opacity="1" /><path clip-path="url(#clip840)" d="M779.098 1316.44 Q776.315 1316.44 774.697 1318.62 Q773.08 1320.79 773.08 1324.57 Q773.08 1328.35 774.679 1330.53 Q776.296 1332.69 779.098 1332.69 Q781.863 1332.69 783.481 1330.51 Q785.098 1328.33 785.098 1324.57 Q785.098 1320.82 783.481 1318.64 Q781.863 1316.44 779.098 1316.44 M779.098 1313.51 Q783.612 1313.51 786.189 1316.44 Q788.766 1319.38 788.766 1324.57 Q788.766 1329.74 786.189 1332.69 Q783.612 1335.63 779.098 1335.63 Q774.566 1335.63 771.989 1332.69 Q769.431 1329.74 769.431 1324.57 Q769.431 1319.38 771.989 1316.44 Q774.566 1313.51 779.098 1313.51 Z" fill="#000000" fill-rule="nonzero" fill-opacity="1" /><path clip-path="url(#clip840)" d="M473.449 841.542 L481.088 841.542 L481.088 815.177 L472.778 816.843 L472.778 812.584 L481.041 810.918 L485.717 810.918 L485.717 841.542 L493.356 841.542 L493.356 845.478 L473.449 845.478 L473.449 841.542 Z" fill="#000000" fill-rule="nonzero" fill-opacity="1" /><path clip-path="url(#clip840)" d="M512.8 829.066 Q509.467 829.066 507.546 830.848 Q505.648 832.63 505.648 835.755 Q505.648 838.88 507.546 840.663 Q509.467 842.445 512.8 842.445 Q516.134 842.445 518.055 840.663 Q519.976 838.857 519.976 835.755 Q519.976 832.63 518.055 830.848 Q516.157 829.066 512.8 829.066 M508.125 827.075 Q505.115 826.334 503.426 824.274 Q501.759 822.214 501.759 819.251 Q501.759 815.107 504.699 812.7 Q507.662 810.293 512.8 810.293 Q517.962 810.293 520.902 812.7 Q523.842 815.107 523.842 819.251 Q523.842 822.214 522.152 824.274 Q520.486 826.334 517.5 827.075 Q520.879 827.862 522.754 830.154 Q524.652 832.445 524.652 835.755 Q524.652 840.778 521.574 843.464 Q518.518 846.149 512.8 846.149 Q507.083 846.149 504.004 843.464 Q500.949 840.778 500.949 835.755 Q500.949 832.445 502.847 830.154 Q504.745 827.862 508.125 827.075 M506.412 819.691 Q506.412 822.376 508.078 823.88 Q509.768 825.385 512.8 825.385 Q515.81 825.385 517.5 823.88 Q519.212 822.376 519.212 819.691 Q519.212 817.005 517.5 815.501 Q515.81 813.996 512.8 813.996 Q509.768 813.996 508.078 815.501 Q506.412 817.005 506.412 819.691 Z" fill="#000000" fill-rule="nonzero" fill-opacity="1" /><path clip-path="url(#clip840)" d="M542.962 813.996 Q539.351 813.996 537.523 817.561 Q535.717 821.103 535.717 828.232 Q535.717 835.339 537.523 838.903 Q539.351 842.445 542.962 842.445 Q546.597 842.445 548.402 838.903 Q550.231 835.339 550.231 828.232 Q550.231 821.103 548.402 817.561 Q546.597 813.996 542.962 813.996 M542.962 810.293 Q548.773 810.293 551.828 814.899 Q554.907 819.482 554.907 828.232 Q554.907 836.959 551.828 841.566 Q548.773 846.149 542.962 846.149 Q537.152 846.149 534.074 841.566 Q531.018 836.959 531.018 828.232 Q531.018 819.482 534.074 814.899 Q537.152 810.293 542.962 810.293 Z" fill="#000000" fill-rule="nonzero" fill-opacity="1" /><path clip-path="url(#clip840)" d="M564.574 799.429 Q561.79 799.429 560.173 801.61 Q558.555 803.773 558.555 807.554 Q558.555 811.334 560.154 813.516 Q561.772 815.679 564.574 815.679 Q567.339 815.679 568.956 813.497 Q570.574 811.315 570.574 807.554 Q570.574 803.811 568.956 801.629 Q567.339 799.429 564.574 799.429 M564.574 796.495 Q569.088 796.495 571.664 799.429 Q574.241 802.363 574.241 807.554 Q574.241 812.726 571.664 815.679 Q569.088 818.613 564.574 818.613 Q560.041 818.613 557.465 815.679 Q554.907 812.726 554.907 807.554 Q554.907 802.363 557.465 799.429 Q560.041 796.495 564.574 796.495 Z" fill="#000000" fill-rule="nonzero" fill-opacity="1" /><path clip-path="url(#clip840)" d="M688.101 324.529 L695.739 324.529 L695.739 298.163 L687.429 299.83 L687.429 295.571 L695.693 293.904 L700.369 293.904 L700.369 324.529 L708.008 324.529 L708.008 328.464 L688.101 328.464 L688.101 324.529 Z" fill="#000000" fill-rule="nonzero" fill-opacity="1" /><path clip-path="url(#clip840)" d="M731.619 309.83 Q734.975 310.547 736.85 312.816 Q738.748 315.084 738.748 318.418 Q738.748 323.533 735.23 326.334 Q731.711 329.135 725.23 329.135 Q723.054 329.135 720.739 328.695 Q718.448 328.279 715.994 327.422 L715.994 322.908 Q717.938 324.043 720.253 324.621 Q722.568 325.2 725.091 325.2 Q729.489 325.2 731.781 323.464 Q734.096 321.728 734.096 318.418 Q734.096 315.362 731.943 313.649 Q729.813 311.913 725.994 311.913 L721.966 311.913 L721.966 308.07 L726.179 308.07 Q729.628 308.07 731.457 306.705 Q733.286 305.316 733.286 302.723 Q733.286 300.061 731.387 298.649 Q729.512 297.214 725.994 297.214 Q724.073 297.214 721.874 297.631 Q719.674 298.047 717.036 298.927 L717.036 294.76 Q719.698 294.02 722.012 293.649 Q724.35 293.279 726.411 293.279 Q731.735 293.279 734.836 295.709 Q737.938 298.117 737.938 302.237 Q737.938 305.108 736.295 307.098 Q734.651 309.066 731.619 309.83 Z" fill="#000000" fill-rule="nonzero" fill-opacity="1" /><path clip-path="url(#clip840)" d="M747.66 293.904 L766.017 293.904 L766.017 297.839 L751.943 297.839 L751.943 306.311 Q752.961 305.964 753.98 305.802 Q754.998 305.617 756.017 305.617 Q761.804 305.617 765.184 308.788 Q768.563 311.959 768.563 317.376 Q768.563 322.955 765.091 326.056 Q761.619 329.135 755.299 329.135 Q753.123 329.135 750.855 328.765 Q748.61 328.394 746.202 327.654 L746.202 322.955 Q748.285 324.089 750.508 324.644 Q752.73 325.2 755.207 325.2 Q759.211 325.2 761.549 323.094 Q763.887 320.987 763.887 317.376 Q763.887 313.765 761.549 311.658 Q759.211 309.552 755.207 309.552 Q753.332 309.552 751.457 309.969 Q749.605 310.385 747.66 311.265 L747.66 293.904 Z" fill="#000000" fill-rule="nonzero" fill-opacity="1" /><path clip-path="url(#clip840)" d="M778.23 282.415 Q775.447 282.415 773.829 284.597 Q772.212 286.76 772.212 290.54 Q772.212 294.32 773.81 296.502 Q775.428 298.665 778.23 298.665 Q780.995 298.665 782.613 296.483 Q784.23 294.301 784.23 290.54 Q784.23 286.797 782.613 284.615 Q780.995 282.415 778.23 282.415 M778.23 279.481 Q782.744 279.481 785.321 282.415 Q787.898 285.349 787.898 290.54 Q787.898 295.712 785.321 298.665 Q782.744 301.599 778.23 301.599 Q773.698 301.599 771.121 298.665 Q768.563 295.712 768.563 290.54 Q768.563 285.349 771.121 282.415 Q773.698 279.481 778.23 279.481 Z" fill="#000000" fill-rule="nonzero" fill-opacity="1" /><path clip-path="url(#clip840)" d="M1220.14 113.592 L1220.14 109.333 Q1221.9 110.166 1223.7 110.606 Q1225.51 111.046 1227.24 111.046 Q1231.87 111.046 1234.3 107.944 Q1236.76 104.819 1237.1 98.4765 Q1235.76 100.467 1233.7 101.532 Q1231.64 102.597 1229.14 102.597 Q1223.96 102.597 1220.92 99.4719 Q1217.92 96.3238 1217.92 90.884 Q1217.92 85.5599 1221.06 82.3424 Q1224.21 79.1248 1229.44 79.1248 Q1235.44 79.1248 1238.59 83.7312 Q1241.76 88.3146 1241.76 97.0645 Q1241.76 105.236 1237.87 110.12 Q1234 114.981 1227.45 114.981 Q1225.69 114.981 1223.89 114.634 Q1222.08 114.287 1220.14 113.592 M1229.44 98.9395 Q1232.59 98.9395 1234.42 96.7867 Q1236.27 94.634 1236.27 90.884 Q1236.27 87.1572 1234.42 85.0044 Q1232.59 82.8285 1229.44 82.8285 Q1226.29 82.8285 1224.44 85.0044 Q1222.61 87.1572 1222.61 90.884 Q1222.61 94.634 1224.44 96.7867 Q1226.29 98.9395 1229.44 98.9395 Z" fill="#000000" fill-rule="nonzero" fill-opacity="1" /><path clip-path="url(#clip840)" d="M1260.16 82.8285 Q1256.55 82.8285 1254.72 86.3933 Q1252.91 89.9349 1252.91 97.0645 Q1252.91 104.171 1254.72 107.736 Q1256.55 111.277 1260.16 111.277 Q1263.79 111.277 1265.6 107.736 Q1267.43 104.171 1267.43 97.0645 Q1267.43 89.9349 1265.6 86.3933 Q1263.79 82.8285 1260.16 82.8285 M1260.16 79.1248 Q1265.97 79.1248 1269.03 83.7312 Q1272.1 88.3146 1272.1 97.0645 Q1272.1 105.791 1269.03 110.398 Q1265.97 114.981 1260.16 114.981 Q1254.35 114.981 1251.27 110.398 Q1248.22 105.791 1248.22 97.0645 Q1248.22 88.3146 1251.27 83.7312 Q1254.35 79.1248 1260.16 79.1248 Z" fill="#000000" fill-rule="nonzero" fill-opacity="1" /><path clip-path="url(#clip840)" d="M1281.77 68.2609 Q1278.99 68.2609 1277.37 70.4426 Q1275.75 72.6055 1275.75 76.3858 Q1275.75 80.1662 1277.35 82.3479 Q1278.97 84.5108 1281.77 84.5108 Q1284.54 84.5108 1286.15 82.3291 Q1287.77 80.1474 1287.77 76.3858 Q1287.77 72.6431 1286.15 70.4614 Q1284.54 68.2609 1281.77 68.2609 M1281.77 65.3269 Q1286.29 65.3269 1288.86 68.2609 Q1291.44 71.1949 1291.44 76.3858 Q1291.44 81.558 1288.86 84.5108 Q1286.29 87.4448 1281.77 87.4448 Q1277.24 87.4448 1274.66 84.5108 Q1272.1 81.558 1272.1 76.3858 Q1272.1 71.1949 1274.66 68.2609 Q1277.24 65.3269 1281.77 65.3269 Z" fill="#000000" fill-rule="nonzero" fill-opacity="1" /><path clip-path="url(#clip840)" d="M1750.69 297.978 L1738.89 316.427 L1750.69 316.427 L1750.69 297.978 M1749.47 293.904 L1755.35 293.904 L1755.35 316.427 L1760.28 316.427 L1760.28 320.316 L1755.35 320.316 L1755.35 328.464 L1750.69 328.464 L1750.69 320.316 L1735.09 320.316 L1735.09 315.802 L1749.47 293.904 Z" fill="#000000" fill-rule="nonzero" fill-opacity="1" /><path clip-path="url(#clip840)" d="M1768.05 293.904 L1786.41 293.904 L1786.41 297.839 L1772.34 297.839 L1772.34 306.311 Q1773.35 305.964 1774.37 305.802 Q1775.39 305.617 1776.41 305.617 Q1782.2 305.617 1785.58 308.788 Q1788.96 311.959 1788.96 317.376 Q1788.96 322.955 1785.48 326.056 Q1782.01 329.135 1775.69 329.135 Q1773.52 329.135 1771.25 328.765 Q1769 328.394 1766.6 327.654 L1766.6 322.955 Q1768.68 324.089 1770.9 324.644 Q1773.12 325.2 1775.6 325.2 Q1779.6 325.2 1781.94 323.094 Q1784.28 320.987 1784.28 317.376 Q1784.28 313.765 1781.94 311.658 Q1779.6 309.552 1775.6 309.552 Q1773.72 309.552 1771.85 309.969 Q1770 310.385 1768.05 311.265 L1768.05 293.904 Z" fill="#000000" fill-rule="nonzero" fill-opacity="1" /><path clip-path="url(#clip840)" d="M1798.62 282.415 Q1795.84 282.415 1794.22 284.597 Q1792.6 286.76 1792.6 290.54 Q1792.6 294.32 1794.2 296.502 Q1795.82 298.665 1798.62 298.665 Q1801.39 298.665 1803.01 296.483 Q1804.62 294.301 1804.62 290.54 Q1804.62 286.797 1803.01 284.615 Q1801.39 282.415 1798.62 282.415 M1798.62 279.481 Q1803.14 279.481 1805.71 282.415 Q1808.29 285.349 1808.29 290.54 Q1808.29 295.712 1805.71 298.665 Q1803.14 301.599 1798.62 301.599 Q1794.09 301.599 1791.51 298.665 Q1788.96 295.712 1788.96 290.54 Q1788.96 285.349 1791.51 282.415 Q1794.09 279.481 1798.62 279.481 Z" fill="#000000" fill-rule="nonzero" fill-opacity="1" /><path clip-path="url(#clip840)" d="M1265.3 807.549 Q1261.69 807.549 1259.86 811.113 Q1258.05 814.655 1258.05 821.785 Q1258.05 828.891 1259.86 832.456 Q1261.69 835.998 1265.3 835.998 Q1268.93 835.998 1270.74 832.456 Q1272.56 828.891 1272.56 821.785 Q1272.56 814.655 1270.74 811.113 Q1268.93 807.549 1265.3 807.549 M1265.3 803.845 Q1271.11 803.845 1274.16 808.451 Q1277.24 813.035 1277.24 821.785 Q1277.24 830.511 1274.16 835.118 Q1271.11 839.701 1265.3 839.701 Q1259.49 839.701 1256.41 835.118 Q1253.35 830.511 1253.35 821.785 Q1253.35 813.035 1256.41 808.451 Q1259.49 803.845 1265.3 803.845 Z" fill="#000000" fill-rule="nonzero" fill-opacity="1" /><path clip-path="url(#clip840)" d="M1285.46 833.15 L1290.34 833.15 L1290.34 839.03 L1285.46 839.03 L1285.46 833.15 Z" fill="#000000" fill-rule="nonzero" fill-opacity="1" /><path clip-path="url(#clip840)" d="M1310.53 807.549 Q1306.92 807.549 1305.09 811.113 Q1303.28 814.655 1303.28 821.785 Q1303.28 828.891 1305.09 832.456 Q1306.92 835.998 1310.53 835.998 Q1314.16 835.998 1315.97 832.456 Q1317.8 828.891 1317.8 821.785 Q1317.8 814.655 1315.97 811.113 Q1314.16 807.549 1310.53 807.549 M1310.53 803.845 Q1316.34 803.845 1319.39 808.451 Q1322.47 813.035 1322.47 821.785 Q1322.47 830.511 1319.39 835.118 Q1316.34 839.701 1310.53 839.701 Q1304.72 839.701 1301.64 835.118 Q1298.58 830.511 1298.58 821.785 Q1298.58 813.035 1301.64 808.451 Q1304.72 803.845 1310.53 803.845 Z" fill="#000000" fill-rule="nonzero" fill-opacity="1" /><path clip-path="url(#clip840)" d="M1266.09 674.609 Q1262.48 674.609 1260.66 678.174 Q1258.85 681.715 1258.85 688.845 Q1258.85 695.952 1260.66 699.516 Q1262.48 703.058 1266.09 703.058 Q1269.73 703.058 1271.53 699.516 Q1273.36 695.952 1273.36 688.845 Q1273.36 681.715 1271.53 678.174 Q1269.73 674.609 1266.09 674.609 M1266.09 670.905 Q1271.91 670.905 1274.96 675.512 Q1278.04 680.095 1278.04 688.845 Q1278.04 697.572 1274.96 702.178 Q1271.91 706.762 1266.09 706.762 Q1260.28 706.762 1257.21 702.178 Q1254.15 697.572 1254.15 688.845 Q1254.15 680.095 1257.21 675.512 Q1260.28 670.905 1266.09 670.905 Z" fill="#000000" fill-rule="nonzero" fill-opacity="1" /><path clip-path="url(#clip840)" d="M1286.26 700.211 L1291.14 700.211 L1291.14 706.09 L1286.26 706.09 L1286.26 700.211 Z" fill="#000000" fill-rule="nonzero" fill-opacity="1" /><path clip-path="url(#clip840)" d="M1305.35 702.155 L1321.67 702.155 L1321.67 706.09 L1299.73 706.09 L1299.73 702.155 Q1302.39 699.401 1306.97 694.771 Q1311.58 690.118 1312.76 688.776 Q1315.01 686.252 1315.89 684.516 Q1316.79 682.757 1316.79 681.067 Q1316.79 678.313 1314.84 676.577 Q1312.92 674.841 1309.82 674.841 Q1307.62 674.841 1305.17 675.604 Q1302.74 676.368 1299.96 677.919 L1299.96 673.197 Q1302.78 672.063 1305.24 671.484 Q1307.69 670.905 1309.73 670.905 Q1315.1 670.905 1318.29 673.591 Q1321.49 676.276 1321.49 680.766 Q1321.49 682.896 1320.68 684.817 Q1319.89 686.715 1317.78 689.308 Q1317.21 689.979 1314.1 693.197 Q1311 696.391 1305.35 702.155 Z" fill="#000000" fill-rule="nonzero" fill-opacity="1" /><path clip-path="url(#clip840)" d="M1265.05 541.669 Q1261.44 541.669 1259.61 545.234 Q1257.81 548.776 1257.81 555.905 Q1257.81 563.012 1259.61 566.577 Q1261.44 570.118 1265.05 570.118 Q1268.69 570.118 1270.49 566.577 Q1272.32 563.012 1272.32 555.905 Q1272.32 548.776 1270.49 545.234 Q1268.69 541.669 1265.05 541.669 M1265.05 537.966 Q1270.86 537.966 1273.92 542.572 Q1277 547.156 1277 555.905 Q1277 564.632 1273.92 569.239 Q1270.86 573.822 1265.05 573.822 Q1259.24 573.822 1256.16 569.239 Q1253.11 564.632 1253.11 555.905 Q1253.11 547.156 1256.16 542.572 Q1259.24 537.966 1265.05 537.966 Z" fill="#000000" fill-rule="nonzero" fill-opacity="1" /><path clip-path="url(#clip840)" d="M1285.22 567.271 L1290.1 567.271 L1290.1 573.151 L1285.22 573.151 L1285.22 567.271 Z" fill="#000000" fill-rule="nonzero" fill-opacity="1" /><path clip-path="url(#clip840)" d="M1313.13 542.665 L1301.33 561.114 L1313.13 561.114 L1313.13 542.665 M1311.9 538.591 L1317.78 538.591 L1317.78 561.114 L1322.72 561.114 L1322.72 565.003 L1317.78 565.003 L1317.78 573.151 L1313.13 573.151 L1313.13 565.003 L1297.53 565.003 L1297.53 560.489 L1311.9 538.591 Z" fill="#000000" fill-rule="nonzero" fill-opacity="1" /><path clip-path="url(#clip840)" d="M1265.22 408.73 Q1261.6 408.73 1259.78 412.295 Q1257.97 415.836 1257.97 422.966 Q1257.97 430.072 1259.78 433.637 Q1261.6 437.179 1265.22 437.179 Q1268.85 437.179 1270.66 433.637 Q1272.48 430.072 1272.48 422.966 Q1272.48 415.836 1270.66 412.295 Q1268.85 408.73 1265.22 408.73 M1265.22 405.026 Q1271.03 405.026 1274.08 409.633 Q1277.16 414.216 1277.16 422.966 Q1277.16 431.693 1274.08 436.299 Q1271.03 440.882 1265.22 440.882 Q1259.41 440.882 1256.33 436.299 Q1253.27 431.693 1253.27 422.966 Q1253.27 414.216 1256.33 409.633 Q1259.41 405.026 1265.22 405.026 Z" fill="#000000" fill-rule="nonzero" fill-opacity="1" /><path clip-path="url(#clip840)" d="M1285.38 434.332 L1290.26 434.332 L1290.26 440.211 L1285.38 440.211 L1285.38 434.332 Z" fill="#000000" fill-rule="nonzero" fill-opacity="1" /><path clip-path="url(#clip840)" d="M1311.03 421.068 Q1307.88 421.068 1306.03 423.221 Q1304.2 425.373 1304.2 429.123 Q1304.2 432.85 1306.03 435.026 Q1307.88 437.179 1311.03 437.179 Q1314.17 437.179 1316 435.026 Q1317.85 432.85 1317.85 429.123 Q1317.85 425.373 1316 423.221 Q1314.17 421.068 1311.03 421.068 M1320.31 406.415 L1320.31 410.674 Q1318.55 409.841 1316.74 409.401 Q1314.96 408.961 1313.2 408.961 Q1308.57 408.961 1306.12 412.086 Q1303.69 415.211 1303.34 421.531 Q1304.71 419.517 1306.77 418.452 Q1308.83 417.364 1311.3 417.364 Q1316.51 417.364 1319.52 420.535 Q1322.55 423.683 1322.55 429.123 Q1322.55 434.447 1319.4 437.665 Q1316.26 440.882 1311.03 440.882 Q1305.03 440.882 1301.86 436.299 Q1298.69 431.693 1298.69 422.966 Q1298.69 414.771 1302.58 409.91 Q1306.47 405.026 1313.02 405.026 Q1314.78 405.026 1316.56 405.373 Q1318.36 405.721 1320.31 406.415 Z" fill="#000000" fill-rule="nonzero" fill-opacity="1" /><path clip-path="url(#clip840)" d="M1265.34 275.79 Q1261.73 275.79 1259.9 279.355 Q1258.1 282.897 1258.1 290.026 Q1258.1 297.133 1259.9 300.698 Q1261.73 304.239 1265.34 304.239 Q1268.98 304.239 1270.78 300.698 Q1272.61 297.133 1272.61 290.026 Q1272.61 282.897 1270.78 279.355 Q1268.98 275.79 1265.34 275.79 M1265.34 272.087 Q1271.15 272.087 1274.21 276.693 Q1277.29 281.276 1277.29 290.026 Q1277.29 298.753 1274.21 303.36 Q1271.15 307.943 1265.34 307.943 Q1259.53 307.943 1256.45 303.36 Q1253.4 298.753 1253.4 290.026 Q1253.4 281.276 1256.45 276.693 Q1259.53 272.087 1265.34 272.087 Z" fill="#000000" fill-rule="nonzero" fill-opacity="1" /><path clip-path="url(#clip840)" d="M1285.5 301.392 L1290.39 301.392 L1290.39 307.272 L1285.5 307.272 L1285.5 301.392 Z" fill="#000000" fill-rule="nonzero" fill-opacity="1" /><path clip-path="url(#clip840)" d="M1310.57 290.86 Q1307.24 290.86 1305.32 292.642 Q1303.42 294.424 1303.42 297.549 Q1303.42 300.674 1305.32 302.457 Q1307.24 304.239 1310.57 304.239 Q1313.91 304.239 1315.83 302.457 Q1317.75 300.651 1317.75 297.549 Q1317.75 294.424 1315.83 292.642 Q1313.93 290.86 1310.57 290.86 M1305.9 288.869 Q1302.89 288.128 1301.2 286.068 Q1299.53 284.008 1299.53 281.045 Q1299.53 276.901 1302.47 274.494 Q1305.44 272.087 1310.57 272.087 Q1315.74 272.087 1318.68 274.494 Q1321.62 276.901 1321.62 281.045 Q1321.62 284.008 1319.93 286.068 Q1318.26 288.128 1315.27 288.869 Q1318.65 289.656 1320.53 291.948 Q1322.43 294.239 1322.43 297.549 Q1322.43 302.573 1319.35 305.258 Q1316.29 307.943 1310.57 307.943 Q1304.86 307.943 1301.78 305.258 Q1298.72 302.573 1298.72 297.549 Q1298.72 294.239 1300.62 291.948 Q1302.52 289.656 1305.9 288.869 M1304.19 281.485 Q1304.19 284.17 1305.85 285.674 Q1307.54 287.179 1310.57 287.179 Q1313.58 287.179 1315.27 285.674 Q1316.99 284.17 1316.99 281.485 Q1316.99 278.799 1315.27 277.295 Q1313.58 275.79 1310.57 275.79 Q1307.54 275.79 1305.85 277.295 Q1304.19 278.799 1304.19 281.485 Z" fill="#000000" fill-rule="nonzero" fill-opacity="1" /><path clip-path="url(#clip840)" d="M1255.06 170.397 L1262.7 170.397 L1262.7 144.031 L1254.39 145.698 L1254.39 141.439 L1262.66 139.772 L1267.33 139.772 L1267.33 170.397 L1274.97 170.397 L1274.97 174.332 L1255.06 174.332 L1255.06 170.397 Z" fill="#000000" fill-rule="nonzero" fill-opacity="1" /><path clip-path="url(#clip840)" d="M1284.42 168.452 L1289.3 168.452 L1289.3 174.332 L1284.42 174.332 L1284.42 168.452 Z" fill="#000000" fill-rule="nonzero" fill-opacity="1" /><path clip-path="url(#clip840)" d="M1309.49 142.851 Q1305.87 142.851 1304.05 146.415 Q1302.24 149.957 1302.24 157.087 Q1302.24 164.193 1304.05 167.758 Q1305.87 171.3 1309.49 171.3 Q1313.12 171.3 1314.93 167.758 Q1316.75 164.193 1316.75 157.087 Q1316.75 149.957 1314.93 146.415 Q1313.12 142.851 1309.49 142.851 M1309.49 139.147 Q1315.3 139.147 1318.35 143.753 Q1321.43 148.337 1321.43 157.087 Q1321.43 165.814 1318.35 170.42 Q1315.3 175.003 1309.49 175.003 Q1303.68 175.003 1300.6 170.42 Q1297.54 165.814 1297.54 157.087 Q1297.54 148.337 1300.6 143.753 Q1303.68 139.147 1309.49 139.147 Z" fill="#000000" fill-rule="nonzero" fill-opacity="1" /><polyline clip-path="url(#clip843)" style="stroke:#009af9; stroke-linecap:round; stroke-linejoin:round; stroke-width:4; stroke-opacity:1; fill:none" points="1919.38,821.75 1918.06,780.013 1914.13,738.441 1907.6,697.198 1898.49,656.446 1886.84,616.347 1872.7,577.058 1856.11,538.735 1837.16,501.529 1815.9,465.587 1792.43,431.05 1766.84,398.056 1739.22,366.733 1709.69,337.206 1678.37,309.591 1645.38,283.998 1610.84,260.527 1574.9,239.271 1537.69,220.313 1499.37,203.729 1460.08,189.585 1419.98,177.935 1379.23,168.826 1337.99,162.293 1296.41,158.364 1254.68,157.052 1212.94,158.364 1171.37,162.293 1130.13,168.826 1089.37,177.935 1049.27,189.585 1009.99,203.729 971.662,220.313 934.456,239.271 898.514,260.527 863.977,283.998 830.983,309.591 799.66,337.206 770.133,366.733 742.518,398.056 716.925,431.05 693.454,465.587 672.198,501.529 653.24,538.735 636.657,577.058 622.512,616.347 610.862,656.446 601.753,697.198 595.22,738.441 591.291,780.013 589.979,821.75 591.291,863.487 595.22,905.059 601.753,946.302 610.862,987.054 622.512,1027.15 636.657,1066.44 653.24,1104.76 672.198,1141.97 693.454,1177.91 716.925,1212.45 742.518,1245.44 770.133,1276.77 799.66,1306.29 830.983,1333.91 863.977,1359.5 898.514,1382.97 934.456,1404.23 971.662,1423.19 1009.99,1439.77 1049.27,1453.92 1089.37,1465.57 1130.13,1474.67 1171.37,1481.21 1212.94,1485.14 1254.68,1486.45 1296.41,1485.14 1337.99,1481.21 1379.23,1474.67 1419.98,1465.57 1460.08,1453.92 1499.37,1439.77 1537.69,1423.19 1574.9,1404.23 1610.84,1382.97 1645.38,1359.5 1678.37,1333.91 1709.69,1306.29 1739.22,1276.77 1766.84,1245.44 1792.43,1212.45 1815.9,1177.91 1837.16,1141.97 1856.11,1104.76 1872.7,1066.44 1886.84,1027.15 1898.49,987.054 1907.6,946.302 1914.13,905.059 1918.06,863.487 1919.38,821.75 "/>
<path clip-path="url(#clip840)" d="M1846.02 198.898 L2279.55 198.898 L2279.55 95.2176 L1846.02 95.2176  Z" fill="#ffffff" fill-rule="evenodd" fill-opacity="1"/>
<polyline clip-path="url(#clip840)" style="stroke:#000000; stroke-linecap:round; stroke-linejoin:round; stroke-width:4; stroke-opacity:1; fill:none" points="1846.02,198.898 2279.55,198.898 2279.55,95.2176 1846.02,95.2176 1846.02,198.898 "/>
<polyline clip-path="url(#clip840)" style="stroke:#009af9; stroke-linecap:round; stroke-linejoin:round; stroke-width:4; stroke-opacity:1; fill:none" points="1870.43,147.058 2016.84,147.058 "/>
<path clip-path="url(#clip840)" d="M2041.24 129.778 L2045.94 129.778 L2045.94 150.773 Q2045.94 156.328 2047.95 158.782 Q2049.96 161.213 2054.48 161.213 Q2058.97 161.213 2060.98 158.782 Q2063 156.328 2063 150.773 L2063 129.778 L2067.7 129.778 L2067.7 151.352 Q2067.7 158.111 2064.34 161.56 Q2061.01 165.009 2054.48 165.009 Q2047.93 165.009 2044.57 161.56 Q2041.24 158.111 2041.24 151.352 L2041.24 129.778 Z" fill="#000000" fill-rule="nonzero" fill-opacity="1" /><path clip-path="url(#clip840)" d="M2097.83 148.689 L2097.83 164.338 L2093.58 164.338 L2093.58 148.828 Q2093.58 145.148 2092.14 143.319 Q2090.71 141.49 2087.83 141.49 Q2084.39 141.49 2082.4 143.69 Q2080.4 145.889 2080.4 149.685 L2080.4 164.338 L2076.12 164.338 L2076.12 138.412 L2080.4 138.412 L2080.4 142.44 Q2081.93 140.102 2083.99 138.944 Q2086.08 137.787 2088.78 137.787 Q2093.25 137.787 2095.54 140.565 Q2097.83 143.319 2097.83 148.689 Z" fill="#000000" fill-rule="nonzero" fill-opacity="1" /><path clip-path="url(#clip840)" d="M2106.33 138.412 L2110.59 138.412 L2110.59 164.338 L2106.33 164.338 L2106.33 138.412 M2106.33 128.319 L2110.59 128.319 L2110.59 133.713 L2106.33 133.713 L2106.33 128.319 Z" fill="#000000" fill-rule="nonzero" fill-opacity="1" /><path clip-path="url(#clip840)" d="M2123.71 131.051 L2123.71 138.412 L2132.49 138.412 L2132.49 141.722 L2123.71 141.722 L2123.71 155.796 Q2123.71 158.967 2124.57 159.87 Q2125.45 160.773 2128.11 160.773 L2132.49 160.773 L2132.49 164.338 L2128.11 164.338 Q2123.18 164.338 2121.31 162.509 Q2119.43 160.657 2119.43 155.796 L2119.43 141.722 L2116.31 141.722 L2116.31 138.412 L2119.43 138.412 L2119.43 131.051 L2123.71 131.051 Z" fill="#000000" fill-rule="nonzero" fill-opacity="1" /><path clip-path="url(#clip840)" d="M2158.02 133.62 L2158.02 160.495 L2163.67 160.495 Q2170.82 160.495 2174.13 157.254 Q2177.46 154.014 2177.46 147.023 Q2177.46 140.078 2174.13 136.861 Q2170.82 133.62 2163.67 133.62 L2158.02 133.62 M2153.34 129.778 L2162.95 129.778 Q2173 129.778 2177.7 133.967 Q2182.39 138.134 2182.39 147.023 Q2182.39 155.958 2177.67 160.148 Q2172.95 164.338 2162.95 164.338 L2153.34 164.338 L2153.34 129.778 Z" fill="#000000" fill-rule="nonzero" fill-opacity="1" /><path clip-path="url(#clip840)" d="M2189.66 138.412 L2193.92 138.412 L2193.92 164.338 L2189.66 164.338 L2189.66 138.412 M2189.66 128.319 L2193.92 128.319 L2193.92 133.713 L2189.66 133.713 L2189.66 128.319 Z" fill="#000000" fill-rule="nonzero" fill-opacity="1" /><path clip-path="url(#clip840)" d="M2219.36 139.176 L2219.36 143.203 Q2217.56 142.277 2215.61 141.815 Q2213.67 141.352 2211.58 141.352 Q2208.41 141.352 2206.82 142.324 Q2205.24 143.296 2205.24 145.24 Q2205.24 146.722 2206.38 147.578 Q2207.51 148.412 2210.94 149.176 L2212.39 149.5 Q2216.93 150.472 2218.83 152.254 Q2220.75 154.014 2220.75 157.185 Q2220.75 160.796 2217.88 162.902 Q2215.03 165.009 2210.03 165.009 Q2207.95 165.009 2205.68 164.592 Q2203.44 164.199 2200.94 163.388 L2200.94 158.99 Q2203.3 160.217 2205.59 160.842 Q2207.88 161.444 2210.13 161.444 Q2213.14 161.444 2214.76 160.426 Q2216.38 159.384 2216.38 157.509 Q2216.38 155.773 2215.2 154.847 Q2214.04 153.921 2210.08 153.064 L2208.6 152.717 Q2204.64 151.884 2202.88 150.171 Q2201.12 148.435 2201.12 145.426 Q2201.12 141.768 2203.71 139.778 Q2206.31 137.787 2211.08 137.787 Q2213.44 137.787 2215.52 138.134 Q2217.6 138.481 2219.36 139.176 Z" fill="#000000" fill-rule="nonzero" fill-opacity="1" /><path clip-path="url(#clip840)" d="M2227.72 129.778 L2232.39 129.778 L2232.39 144.384 L2247.9 129.778 L2253.92 129.778 L2236.77 145.889 L2255.15 164.338 L2248.99 164.338 L2232.39 147.694 L2232.39 164.338 L2227.72 164.338 L2227.72 129.778 Z" fill="#000000" fill-rule="nonzero" fill-opacity="1" /></svg>
