<?xml version="1.0" encoding="utf-8"?>
<svg xmlns="http://www.w3.org/2000/svg" xmlns:xlink="http://www.w3.org/1999/xlink" width="600" height="400" viewBox="0 0 2400 1600">
<defs>
  <clipPath id="clip750">
    <rect x="0" y="0" width="2400" height="1600"/>
  </clipPath>
</defs>
<path clip-path="url(#clip750)" d="M0 1600 L2400 1600 L2400 0 L0 0  Z" fill="#ffffff" fill-rule="evenodd" fill-opacity="1"/>
<defs>
  <clipPath id="clip751">
    <rect x="480" y="0" width="1681" height="1600"/>
  </clipPath>
</defs>
<path clip-path="url(#clip750)" d="M247.459 1423.18 L2352.76 1423.18 L2352.76 123.472 L247.459 123.472  Z" fill="#ffffff" fill-rule="evenodd" fill-opacity="1"/>
<defs>
  <clipPath id="clip752">
    <rect x="247" y="123" width="2106" height="1301"/>
  </clipPath>
</defs>
<polyline clip-path="url(#clip752)" style="stroke:#000000; stroke-linecap:round; stroke-linejoin:round; stroke-width:2; stroke-opacity:0.1; fill:none" points="307.043,1423.18 307.043,123.472 "/>
<polyline clip-path="url(#clip752)" style="stroke:#000000; stroke-linecap:round; stroke-linejoin:round; stroke-width:2; stroke-opacity:0.1; fill:none" points="803.575,1423.18 803.575,123.472 "/>
<polyline clip-path="url(#clip752)" style="stroke:#000000; stroke-linecap:round; stroke-linejoin:round; stroke-width:2; stroke-opacity:0.1; fill:none" points="1300.11,1423.18 1300.11,123.472 "/>
<polyline clip-path="url(#clip752)" style="stroke:#000000; stroke-linecap:round; stroke-linejoin:round; stroke-width:2; stroke-opacity:0.1; fill:none" points="1796.64,1423.18 1796.64,123.472 "/>
<polyline clip-path="url(#clip752)" style="stroke:#000000; stroke-linecap:round; stroke-linejoin:round; stroke-width:2; stroke-opacity:0.1; fill:none" points="2293.17,1423.18 2293.17,123.472 "/>
<polyline clip-path="url(#clip752)" style="stroke:#000000; stroke-linecap:round; stroke-linejoin:round; stroke-width:2; stroke-opacity:0.1; fill:none" points="247.459,1386.4 2352.76,1386.4 "/>
<polyline clip-path="url(#clip752)" style="stroke:#000000; stroke-linecap:round; stroke-linejoin:round; stroke-width:2; stroke-opacity:0.1; fill:none" points="247.459,1079.86 2352.76,1079.86 "/>
<polyline clip-path="url(#clip752)" style="stroke:#000000; stroke-linecap:round; stroke-linejoin:round; stroke-width:2; stroke-opacity:0.1; fill:none" points="247.459,773.326 2352.76,773.326 "/>
<polyline clip-path="url(#clip752)" style="stroke:#000000; stroke-linecap:round; stroke-linejoin:round; stroke-width:2; stroke-opacity:0.1; fill:none" points="247.459,466.791 2352.76,466.791 "/>
<polyline clip-path="url(#clip752)" style="stroke:#000000; stroke-linecap:round; stroke-linejoin:round; stroke-width:2; stroke-opacity:0.1; fill:none" points="247.459,160.256 2352.76,160.256 "/>
<polyline clip-path="url(#clip750)" style="stroke:#000000; stroke-linecap:round; stroke-linejoin:round; stroke-width:4; stroke-opacity:1; fill:none" points="247.459,1423.18 2352.76,1423.18 "/>
<polyline clip-path="url(#clip750)" style="stroke:#000000; stroke-linecap:round; stroke-linejoin:round; stroke-width:4; stroke-opacity:1; fill:none" points="307.043,1423.18 307.043,1404.28 "/>
<polyline clip-path="url(#clip750)" style="stroke:#000000; stroke-linecap:round; stroke-linejoin:round; stroke-width:4; stroke-opacity:1; fill:none" points="803.575,1423.18 803.575,1404.28 "/>
<polyline clip-path="url(#clip750)" style="stroke:#000000; stroke-linecap:round; stroke-linejoin:round; stroke-width:4; stroke-opacity:1; fill:none" points="1300.11,1423.18 1300.11,1404.28 "/>
<polyline clip-path="url(#clip750)" style="stroke:#000000; stroke-linecap:round; stroke-linejoin:round; stroke-width:4; stroke-opacity:1; fill:none" points="1796.64,1423.18 1796.64,1404.28 "/>
<polyline clip-path="url(#clip750)" style="stroke:#000000; stroke-linecap:round; stroke-linejoin:round; stroke-width:4; stroke-opacity:1; fill:none" points="2293.17,1423.18 2293.17,1404.28 "/>
<path clip-path="url(#clip750)" d="M284.427 1454.1 Q280.816 1454.1 278.987 1457.66 Q277.182 1461.2 277.182 1468.33 Q277.182 1475.44 278.987 1479.01 Q280.816 1482.55 284.427 1482.55 Q288.061 1482.55 289.867 1479.01 Q291.695 1475.44 291.695 1468.33 Q291.695 1461.2 289.867 1457.66 Q288.061 1454.1 284.427 1454.1 M284.427 1450.39 Q290.237 1450.39 293.293 1455 Q296.371 1459.58 296.371 1468.33 Q296.371 1477.06 293.293 1481.67 Q290.237 1486.25 284.427 1486.25 Q278.617 1486.25 275.538 1481.67 Q272.483 1477.06 272.483 1468.33 Q272.483 1459.58 275.538 1455 Q278.617 1450.39 284.427 1450.39 Z" fill="#000000" fill-rule="nonzero" fill-opacity="1" /><path clip-path="url(#clip750)" d="M304.589 1479.7 L309.473 1479.7 L309.473 1485.58 L304.589 1485.58 L304.589 1479.7 Z" fill="#000000" fill-rule="nonzero" fill-opacity="1" /><path clip-path="url(#clip750)" d="M329.658 1454.1 Q326.047 1454.1 324.218 1457.66 Q322.413 1461.2 322.413 1468.33 Q322.413 1475.44 324.218 1479.01 Q326.047 1482.55 329.658 1482.55 Q333.292 1482.55 335.098 1479.01 Q336.927 1475.44 336.927 1468.33 Q336.927 1461.2 335.098 1457.66 Q333.292 1454.1 329.658 1454.1 M329.658 1450.39 Q335.468 1450.39 338.524 1455 Q341.603 1459.58 341.603 1468.33 Q341.603 1477.06 338.524 1481.67 Q335.468 1486.25 329.658 1486.25 Q323.848 1486.25 320.769 1481.67 Q317.714 1477.06 317.714 1468.33 Q317.714 1459.58 320.769 1455 Q323.848 1450.39 329.658 1450.39 Z" fill="#000000" fill-rule="nonzero" fill-opacity="1" /><path clip-path="url(#clip750)" d="M775.311 1481.64 L791.631 1481.64 L791.631 1485.58 L769.686 1485.58 L769.686 1481.64 Q772.348 1478.89 776.932 1474.26 Q781.538 1469.61 782.719 1468.27 Q784.964 1465.74 785.844 1464.01 Q786.746 1462.25 786.746 1460.56 Q786.746 1457.8 784.802 1456.07 Q782.881 1454.33 779.779 1454.33 Q777.58 1454.33 775.126 1455.09 Q772.695 1455.86 769.918 1457.41 L769.918 1452.69 Q772.742 1451.55 775.195 1450.97 Q777.649 1450.39 779.686 1450.39 Q785.057 1450.39 788.251 1453.08 Q791.445 1455.77 791.445 1460.26 Q791.445 1462.39 790.635 1464.31 Q789.848 1466.2 787.742 1468.8 Q787.163 1469.47 784.061 1472.69 Q780.959 1475.88 775.311 1481.64 Z" fill="#000000" fill-rule="nonzero" fill-opacity="1" /><path clip-path="url(#clip750)" d="M801.445 1479.7 L806.33 1479.7 L806.33 1485.58 L801.445 1485.58 L801.445 1479.7 Z" fill="#000000" fill-rule="nonzero" fill-opacity="1" /><path clip-path="url(#clip750)" d="M816.561 1451.02 L834.917 1451.02 L834.917 1454.96 L820.843 1454.96 L820.843 1463.43 Q821.862 1463.08 822.88 1462.92 Q823.899 1462.73 824.917 1462.73 Q830.704 1462.73 834.084 1465.9 Q837.464 1469.08 837.464 1474.49 Q837.464 1480.07 833.991 1483.17 Q830.519 1486.25 824.2 1486.25 Q822.024 1486.25 819.755 1485.88 Q817.51 1485.51 815.103 1484.77 L815.103 1480.07 Q817.186 1481.2 819.408 1481.76 Q821.63 1482.32 824.107 1482.32 Q828.112 1482.32 830.45 1480.21 Q832.788 1478.1 832.788 1474.49 Q832.788 1470.88 830.45 1468.77 Q828.112 1466.67 824.107 1466.67 Q822.232 1466.67 820.357 1467.08 Q818.505 1467.5 816.561 1468.38 L816.561 1451.02 Z" fill="#000000" fill-rule="nonzero" fill-opacity="1" /><path clip-path="url(#clip750)" d="M1267.27 1451.02 L1285.63 1451.02 L1285.63 1454.96 L1271.55 1454.96 L1271.55 1463.43 Q1272.57 1463.08 1273.59 1462.92 Q1274.61 1462.73 1275.63 1462.73 Q1281.42 1462.73 1284.79 1465.9 Q1288.17 1469.08 1288.17 1474.49 Q1288.17 1480.07 1284.7 1483.17 Q1281.23 1486.25 1274.91 1486.25 Q1272.73 1486.25 1270.47 1485.88 Q1268.22 1485.51 1265.81 1484.77 L1265.81 1480.07 Q1267.9 1481.2 1270.12 1481.76 Q1272.34 1482.32 1274.82 1482.32 Q1278.82 1482.32 1281.16 1480.21 Q1283.5 1478.1 1283.5 1474.49 Q1283.5 1470.88 1281.16 1468.77 Q1278.82 1466.67 1274.82 1466.67 Q1272.94 1466.67 1271.07 1467.08 Q1269.22 1467.5 1267.27 1468.38 L1267.27 1451.02 Z" fill="#000000" fill-rule="nonzero" fill-opacity="1" /><path clip-path="url(#clip750)" d="M1297.39 1479.7 L1302.27 1479.7 L1302.27 1485.58 L1297.39 1485.58 L1297.39 1479.7 Z" fill="#000000" fill-rule="nonzero" fill-opacity="1" /><path clip-path="url(#clip750)" d="M1322.46 1454.1 Q1318.85 1454.1 1317.02 1457.66 Q1315.21 1461.2 1315.21 1468.33 Q1315.21 1475.44 1317.02 1479.01 Q1318.85 1482.55 1322.46 1482.55 Q1326.09 1482.55 1327.9 1479.01 Q1329.73 1475.44 1329.73 1468.33 Q1329.73 1461.2 1327.9 1457.66 Q1326.09 1454.1 1322.46 1454.1 M1322.46 1450.39 Q1328.27 1450.39 1331.32 1455 Q1334.4 1459.58 1334.4 1468.33 Q1334.4 1477.06 1331.32 1481.67 Q1328.27 1486.25 1322.46 1486.25 Q1316.65 1486.25 1313.57 1481.67 Q1310.51 1477.06 1310.51 1468.33 Q1310.51 1459.58 1313.57 1455 Q1316.65 1450.39 1322.46 1450.39 Z" fill="#000000" fill-rule="nonzero" fill-opacity="1" /><path clip-path="url(#clip750)" d="M1762.96 1451.02 L1785.18 1451.02 L1785.18 1453.01 L1772.64 1485.58 L1767.75 1485.58 L1779.56 1454.96 L1762.96 1454.96 L1762.96 1451.02 Z" fill="#000000" fill-rule="nonzero" fill-opacity="1" /><path clip-path="url(#clip750)" d="M1794.3 1479.7 L1799.19 1479.7 L1799.19 1485.58 L1794.3 1485.58 L1794.3 1479.7 Z" fill="#000000" fill-rule="nonzero" fill-opacity="1" /><path clip-path="url(#clip750)" d="M1809.42 1451.02 L1827.77 1451.02 L1827.77 1454.96 L1813.7 1454.96 L1813.7 1463.43 Q1814.72 1463.08 1815.74 1462.92 Q1816.76 1462.73 1817.77 1462.73 Q1823.56 1462.73 1826.94 1465.9 Q1830.32 1469.08 1830.32 1474.49 Q1830.32 1480.07 1826.85 1483.17 Q1823.38 1486.25 1817.06 1486.25 Q1814.88 1486.25 1812.61 1485.88 Q1810.37 1485.51 1807.96 1484.77 L1807.96 1480.07 Q1810.04 1481.2 1812.26 1481.76 Q1814.49 1482.32 1816.96 1482.32 Q1820.97 1482.32 1823.31 1480.21 Q1825.64 1478.1 1825.64 1474.49 Q1825.64 1470.88 1823.31 1468.77 Q1820.97 1466.67 1816.96 1466.67 Q1815.09 1466.67 1813.21 1467.08 Q1811.36 1467.5 1809.42 1468.38 L1809.42 1451.02 Z" fill="#000000" fill-rule="nonzero" fill-opacity="1" /><path clip-path="url(#clip750)" d="M2245.24 1481.64 L2252.88 1481.64 L2252.88 1455.28 L2244.57 1456.95 L2244.57 1452.69 L2252.84 1451.02 L2257.51 1451.02 L2257.51 1481.64 L2265.15 1481.64 L2265.15 1485.58 L2245.24 1485.58 L2245.24 1481.64 Z" fill="#000000" fill-rule="nonzero" fill-opacity="1" /><path clip-path="url(#clip750)" d="M2284.6 1454.1 Q2280.98 1454.1 2279.16 1457.66 Q2277.35 1461.2 2277.35 1468.33 Q2277.35 1475.44 2279.16 1479.01 Q2280.98 1482.55 2284.6 1482.55 Q2288.23 1482.55 2290.04 1479.01 Q2291.86 1475.44 2291.86 1468.33 Q2291.86 1461.2 2290.04 1457.66 Q2288.23 1454.1 2284.6 1454.1 M2284.6 1450.39 Q2290.41 1450.39 2293.46 1455 Q2296.54 1459.58 2296.54 1468.33 Q2296.54 1477.06 2293.46 1481.67 Q2290.41 1486.25 2284.6 1486.25 Q2278.79 1486.25 2275.71 1481.67 Q2272.65 1477.06 2272.65 1468.33 Q2272.65 1459.58 2275.71 1455 Q2278.79 1450.39 2284.6 1450.39 Z" fill="#000000" fill-rule="nonzero" fill-opacity="1" /><path clip-path="url(#clip750)" d="M2304.76 1479.7 L2309.64 1479.7 L2309.64 1485.58 L2304.76 1485.58 L2304.76 1479.7 Z" fill="#000000" fill-rule="nonzero" fill-opacity="1" /><path clip-path="url(#clip750)" d="M2329.83 1454.1 Q2326.22 1454.1 2324.39 1457.66 Q2322.58 1461.2 2322.58 1468.33 Q2322.58 1475.44 2324.39 1479.01 Q2326.22 1482.55 2329.83 1482.55 Q2333.46 1482.55 2335.27 1479.01 Q2337.1 1475.44 2337.1 1468.33 Q2337.1 1461.2 2335.27 1457.66 Q2333.46 1454.1 2329.83 1454.1 M2329.83 1450.39 Q2335.64 1450.39 2338.69 1455 Q2341.77 1459.58 2341.77 1468.33 Q2341.77 1477.06 2338.69 1481.67 Q2335.64 1486.25 2329.83 1486.25 Q2324.02 1486.25 2320.94 1481.67 Q2317.88 1477.06 2317.88 1468.33 Q2317.88 1459.58 2320.94 1455 Q2324.02 1450.39 2329.83 1450.39 Z" fill="#000000" fill-rule="nonzero" fill-opacity="1" /><path clip-path="url(#clip750)" d="M1312.22 1560.52 Q1312.22 1561.04 1311.84 1561.46 Q1311.48 1561.84 1310.9 1561.84 Q1310.45 1561.84 1310.13 1561.55 Q1309.84 1561.26 1309.39 1560.59 L1295.09 1539.75 L1290.32 1539.75 L1290.32 1559.46 Q1290.32 1561.1 1289.97 1561.49 Q1289.62 1561.84 1288.01 1561.84 L1281.63 1561.84 Q1280.02 1561.84 1279.63 1561.46 Q1279.25 1561.07 1279.25 1559.46 L1279.25 1519.17 Q1279.25 1517.59 1279.63 1517.21 Q1280.02 1516.79 1281.63 1516.79 L1295.8 1516.79 Q1300.12 1516.79 1303.75 1518.08 Q1307.43 1519.33 1309.81 1522.01 Q1312.22 1524.68 1312.22 1528.29 Q1312.22 1532.73 1308.52 1535.82 Q1304.85 1538.91 1298.18 1539.69 L1304.72 1549.25 L1311.42 1558.95 Q1312.22 1560.07 1312.22 1560.52 M1309.58 1528.29 Q1309.58 1525.42 1307.49 1523.36 Q1305.4 1521.3 1302.31 1520.36 Q1299.21 1519.43 1295.67 1519.43 L1290.32 1519.43 L1290.32 1537.11 L1295.67 1537.11 Q1298.28 1537.11 1300.69 1536.56 Q1303.11 1536.02 1305.14 1534.98 Q1307.17 1533.95 1308.36 1532.21 Q1309.58 1530.48 1309.58 1528.29 M1287.68 1559.2 L1287.68 1519.43 L1281.89 1519.43 L1281.89 1559.2 L1287.68 1559.2 Z" fill="#000000" fill-rule="nonzero" fill-opacity="1" /><polyline clip-path="url(#clip750)" style="stroke:#000000; stroke-linecap:round; stroke-linejoin:round; stroke-width:4; stroke-opacity:1; fill:none" points="247.459,1423.18 247.459,123.472 "/>
<polyline clip-path="url(#clip750)" style="stroke:#000000; stroke-linecap:round; stroke-linejoin:round; stroke-width:4; stroke-opacity:1; fill:none" points="247.459,1386.4 266.356,1386.4 "/>
<polyline clip-path="url(#clip750)" style="stroke:#000000; stroke-linecap:round; stroke-linejoin:round; stroke-width:4; stroke-opacity:1; fill:none" points="247.459,1079.86 266.356,1079.86 "/>
<polyline clip-path="url(#clip750)" style="stroke:#000000; stroke-linecap:round; stroke-linejoin:round; stroke-width:4; stroke-opacity:1; fill:none" points="247.459,773.326 266.356,773.326 "/>
<polyline clip-path="url(#clip750)" style="stroke:#000000; stroke-linecap:round; stroke-linejoin:round; stroke-width:4; stroke-opacity:1; fill:none" points="247.459,466.791 266.356,466.791 "/>
<polyline clip-path="url(#clip750)" style="stroke:#000000; stroke-linecap:round; stroke-linejoin:round; stroke-width:4; stroke-opacity:1; fill:none" points="247.459,160.256 266.356,160.256 "/>
<path clip-path="url(#clip750)" d="M154.283 1372.19 Q150.672 1372.19 148.843 1375.76 Q147.038 1379.3 147.038 1386.43 Q147.038 1393.54 148.843 1397.1 Q150.672 1400.64 154.283 1400.64 Q157.917 1400.64 159.723 1397.1 Q161.552 1393.54 161.552 1386.43 Q161.552 1379.3 159.723 1375.76 Q157.917 1372.19 154.283 1372.19 M154.283 1368.49 Q160.093 1368.49 163.149 1373.1 Q166.227 1377.68 166.227 1386.43 Q166.227 1395.16 163.149 1399.76 Q160.093 1404.35 154.283 1404.35 Q148.473 1404.35 145.394 1399.76 Q142.339 1395.16 142.339 1386.43 Q142.339 1377.68 145.394 1373.1 Q148.473 1368.49 154.283 1368.49 Z" fill="#000000" fill-rule="nonzero" fill-opacity="1" /><path clip-path="url(#clip750)" d="M174.445 1397.8 L179.329 1397.8 L179.329 1403.68 L174.445 1403.68 L174.445 1397.8 Z" fill="#000000" fill-rule="nonzero" fill-opacity="1" /><path clip-path="url(#clip750)" d="M199.514 1372.19 Q195.903 1372.19 194.075 1375.76 Q192.269 1379.3 192.269 1386.43 Q192.269 1393.54 194.075 1397.1 Q195.903 1400.64 199.514 1400.64 Q203.149 1400.64 204.954 1397.1 Q206.783 1393.54 206.783 1386.43 Q206.783 1379.3 204.954 1375.76 Q203.149 1372.19 199.514 1372.19 M199.514 1368.49 Q205.324 1368.49 208.38 1373.1 Q211.459 1377.68 211.459 1386.43 Q211.459 1395.16 208.38 1399.76 Q205.324 1404.35 199.514 1404.35 Q193.704 1404.35 190.625 1399.76 Q187.57 1395.16 187.57 1386.43 Q187.57 1377.68 190.625 1373.1 Q193.704 1368.49 199.514 1368.49 Z" fill="#000000" fill-rule="nonzero" fill-opacity="1" /><path clip-path="url(#clip750)" d="M149.306 1093.21 L165.626 1093.21 L165.626 1097.14 L143.681 1097.14 L143.681 1093.21 Q146.343 1090.45 150.927 1085.82 Q155.533 1081.17 156.714 1079.83 Q158.959 1077.3 159.839 1075.57 Q160.741 1073.81 160.741 1072.12 Q160.741 1069.36 158.797 1067.63 Q156.876 1065.89 153.774 1065.89 Q151.575 1065.89 149.121 1066.65 Q146.691 1067.42 143.913 1068.97 L143.913 1064.25 Q146.737 1063.11 149.191 1062.53 Q151.644 1061.96 153.681 1061.96 Q159.052 1061.96 162.246 1064.64 Q165.44 1067.33 165.44 1071.82 Q165.44 1073.95 164.63 1075.87 Q163.843 1077.77 161.737 1080.36 Q161.158 1081.03 158.056 1084.25 Q154.954 1087.44 149.306 1093.21 Z" fill="#000000" fill-rule="nonzero" fill-opacity="1" /><path clip-path="url(#clip750)" d="M175.44 1091.26 L180.325 1091.26 L180.325 1097.14 L175.44 1097.14 L175.44 1091.26 Z" fill="#000000" fill-rule="nonzero" fill-opacity="1" /><path clip-path="url(#clip750)" d="M190.556 1062.58 L208.912 1062.58 L208.912 1066.52 L194.838 1066.52 L194.838 1074.99 Q195.857 1074.64 196.875 1074.48 Q197.894 1074.29 198.912 1074.29 Q204.699 1074.29 208.079 1077.47 Q211.459 1080.64 211.459 1086.05 Q211.459 1091.63 207.987 1094.73 Q204.514 1097.81 198.195 1097.81 Q196.019 1097.81 193.75 1097.44 Q191.505 1097.07 189.098 1096.33 L189.098 1091.63 Q191.181 1092.77 193.403 1093.32 Q195.625 1093.88 198.102 1093.88 Q202.107 1093.88 204.445 1091.77 Q206.783 1089.66 206.783 1086.05 Q206.783 1082.44 204.445 1080.34 Q202.107 1078.23 198.102 1078.23 Q196.227 1078.23 194.352 1078.65 Q192.5 1079.06 190.556 1079.94 L190.556 1062.58 Z" fill="#000000" fill-rule="nonzero" fill-opacity="1" /><path clip-path="url(#clip750)" d="M144.329 756.046 L162.686 756.046 L162.686 759.981 L148.612 759.981 L148.612 768.453 Q149.63 768.106 150.649 767.944 Q151.667 767.759 152.686 767.759 Q158.473 767.759 161.852 770.93 Q165.232 774.101 165.232 779.518 Q165.232 785.097 161.76 788.199 Q158.288 791.277 151.968 791.277 Q149.792 791.277 147.524 790.907 Q145.279 790.537 142.871 789.796 L142.871 785.097 Q144.954 786.231 147.177 786.787 Q149.399 787.342 151.876 787.342 Q155.88 787.342 158.218 785.236 Q160.556 783.129 160.556 779.518 Q160.556 775.907 158.218 773.801 Q155.88 771.694 151.876 771.694 Q150.001 771.694 148.126 772.111 Q146.274 772.527 144.329 773.407 L144.329 756.046 Z" fill="#000000" fill-rule="nonzero" fill-opacity="1" /><path clip-path="url(#clip750)" d="M174.445 784.726 L179.329 784.726 L179.329 790.606 L174.445 790.606 L174.445 784.726 Z" fill="#000000" fill-rule="nonzero" fill-opacity="1" /><path clip-path="url(#clip750)" d="M199.514 759.125 Q195.903 759.125 194.075 762.689 Q192.269 766.231 192.269 773.361 Q192.269 780.467 194.075 784.032 Q195.903 787.574 199.514 787.574 Q203.149 787.574 204.954 784.032 Q206.783 780.467 206.783 773.361 Q206.783 766.231 204.954 762.689 Q203.149 759.125 199.514 759.125 M199.514 755.421 Q205.324 755.421 208.38 760.027 Q211.459 764.611 211.459 773.361 Q211.459 782.088 208.38 786.694 Q205.324 791.277 199.514 791.277 Q193.704 791.277 190.625 786.694 Q187.57 782.088 187.57 773.361 Q187.57 764.611 190.625 760.027 Q193.704 755.421 199.514 755.421 Z" fill="#000000" fill-rule="nonzero" fill-opacity="1" /><path clip-path="url(#clip750)" d="M144.098 449.511 L166.32 449.511 L166.32 451.502 L153.774 484.071 L148.89 484.071 L160.695 453.446 L144.098 453.446 L144.098 449.511 Z" fill="#000000" fill-rule="nonzero" fill-opacity="1" /><path clip-path="url(#clip750)" d="M175.44 478.192 L180.325 478.192 L180.325 484.071 L175.44 484.071 L175.44 478.192 Z" fill="#000000" fill-rule="nonzero" fill-opacity="1" /><path clip-path="url(#clip750)" d="M190.556 449.511 L208.912 449.511 L208.912 453.446 L194.838 453.446 L194.838 461.918 Q195.857 461.571 196.875 461.409 Q197.894 461.224 198.912 461.224 Q204.699 461.224 208.079 464.395 Q211.459 467.567 211.459 472.983 Q211.459 478.562 207.987 481.664 Q204.514 484.742 198.195 484.742 Q196.019 484.742 193.75 484.372 Q191.505 484.002 189.098 483.261 L189.098 478.562 Q191.181 479.696 193.403 480.252 Q195.625 480.807 198.102 480.807 Q202.107 480.807 204.445 478.701 Q206.783 476.594 206.783 472.983 Q206.783 469.372 204.445 467.266 Q202.107 465.159 198.102 465.159 Q196.227 465.159 194.352 465.576 Q192.5 465.993 190.556 466.872 L190.556 449.511 Z" fill="#000000" fill-rule="nonzero" fill-opacity="1" /><path clip-path="url(#clip750)" d="M114.931 173.601 L122.57 173.601 L122.57 147.236 L114.26 148.902 L114.26 144.643 L122.524 142.976 L127.2 142.976 L127.2 173.601 L134.839 173.601 L134.839 177.536 L114.931 177.536 L114.931 173.601 Z" fill="#000000" fill-rule="nonzero" fill-opacity="1" /><path clip-path="url(#clip750)" d="M154.283 146.055 Q150.672 146.055 148.843 149.62 Q147.038 153.161 147.038 160.291 Q147.038 167.397 148.843 170.962 Q150.672 174.504 154.283 174.504 Q157.917 174.504 159.723 170.962 Q161.552 167.397 161.552 160.291 Q161.552 153.161 159.723 149.62 Q157.917 146.055 154.283 146.055 M154.283 142.351 Q160.093 142.351 163.149 146.958 Q166.227 151.541 166.227 160.291 Q166.227 169.018 163.149 173.624 Q160.093 178.208 154.283 178.208 Q148.473 178.208 145.394 173.624 Q142.339 169.018 142.339 160.291 Q142.339 151.541 145.394 146.958 Q148.473 142.351 154.283 142.351 Z" fill="#000000" fill-rule="nonzero" fill-opacity="1" /><path clip-path="url(#clip750)" d="M174.445 171.657 L179.329 171.657 L179.329 177.536 L174.445 177.536 L174.445 171.657 Z" fill="#000000" fill-rule="nonzero" fill-opacity="1" /><path clip-path="url(#clip750)" d="M199.514 146.055 Q195.903 146.055 194.075 149.62 Q192.269 153.161 192.269 160.291 Q192.269 167.397 194.075 170.962 Q195.903 174.504 199.514 174.504 Q203.149 174.504 204.954 170.962 Q206.783 167.397 206.783 160.291 Q206.783 153.161 204.954 149.62 Q203.149 146.055 199.514 146.055 M199.514 142.351 Q205.324 142.351 208.38 146.958 Q211.459 151.541 211.459 160.291 Q211.459 169.018 208.38 173.624 Q205.324 178.208 199.514 178.208 Q193.704 178.208 190.625 173.624 Q187.57 169.018 187.57 160.291 Q187.57 151.541 190.625 146.958 Q193.704 142.351 199.514 142.351 Z" fill="#000000" fill-rule="nonzero" fill-opacity="1" /><path clip-path="url(#clip750)" d="M72.1232 767.96 L71.9299 775.689 L72.1232 783.741 L69.0314 783.741 L69.0314 779.168 L48.6451 779.168 Q46.7771 779.168 46.4229 779.844 Q46.0686 780.52 46.0686 783.548 L42.9769 783.548 L42.4294 772.05 L69.0314 772.05 L69.0314 767.96 L72.1232 767.96 M28.452 772.662 Q29.9657 771.148 32.0913 771.148 Q34.2169 771.148 35.7305 772.662 Q37.2442 774.143 37.2442 776.269 Q37.2442 778.395 35.7305 779.908 Q34.2169 781.422 32.0913 781.422 Q29.9657 781.422 28.452 779.908 Q26.9383 778.395 26.9383 776.269 Q26.9383 774.143 28.452 772.662 Z" fill="#000000" fill-rule="nonzero" fill-opacity="1" /><path clip-path="url(#clip750)" d="M1282.91 27.2059 L1318.32 27.2059 L1318.32 34.0114 L1290.28 66.6212 L1318.32 66.6212 L1318.32 72.576 L1281.9 72.576 L1281.9 65.7705 L1309.93 33.1607 L1282.91 33.1607 L1282.91 27.2059 Z" fill="#000000" fill-rule="nonzero" fill-opacity="1" /><polyline clip-path="url(#clip752)" style="stroke:#0000ff; stroke-linecap:round; stroke-linejoin:round; stroke-width:4; stroke-opacity:1; fill:none" points="505.656,1386.4 505.655,1386.3 505.655,1386.2 505.655,1386.11 505.655,1386.01 505.654,1385.91 505.653,1385.82 505.653,1385.72 505.652,1385.62 505.651,1385.53 505.649,1385.43 505.648,1385.34 505.647,1385.24 505.645,1385.14 505.644,1385.05 505.642,1384.95 505.64,1384.85 505.638,1384.76 505.636,1384.66 505.633,1384.56 505.631,1384.47 505.628,1384.37 505.626,1384.28 505.623,1384.18 505.62,1384.08 505.617,1383.99 505.614,1383.89 505.611,1383.79 505.607,1383.7 505.604,1383.6 505.6,1383.5 505.597,1383.41 505.593,1383.31 505.589,1383.21 505.585,1383.12 505.58,1383.02 505.576,1382.93 505.572,1382.83 505.567,1382.73 505.562,1382.64 505.557,1382.54 505.552,1382.44 505.547,1382.35 505.542,1382.25 505.537,1382.16 505.531,1382.06 505.526,1381.96 505.52,1381.87 505.514,1381.77 505.508,1381.67 505.502,1381.58 505.496,1381.48 505.49,1381.38 505.483,1381.29 505.477,1381.19 505.47,1381.1 505.463,1381 505.456,1380.9 505.449,1380.81 505.442,1380.71 505.435,1380.61 505.427,1380.52 505.42,1380.42 505.412,1380.33 505.404,1380.23 505.396,1380.13 505.388,1380.04 505.38,1379.94 505.372,1379.84 505.363,1379.75 505.355,1379.65 505.346,1379.56 505.337,1379.46 505.329,1379.36 505.32,1379.27 505.31,1379.17 505.301,1379.07 505.292,1378.98 505.282,1378.88 505.273,1378.79 505.263,1378.69 505.253,1378.59 505.243,1378.5 505.233,1378.4 505.223,1378.3 505.212,1378.21 505.202,1378.11 505.191,1378.02 505.18,1377.92 505.17,1377.82 505.159,1377.73 505.147,1377.63 505.136,1377.53 505.125,1377.44 505.113,1377.34 505.102,1377.25 505.09,1377.15 505.078,1377.05 505.066,1376.96 505.054,1376.86 505.042,1376.77 505.03,1376.67 505.017,1376.57 505.005,1376.48 504.992,1376.38 504.979,1376.29 504.966,1376.19 504.953,1376.09 504.94,1376 504.927,1375.9 504.913,1375.81 504.9,1375.71 504.886,1375.61 504.872,1375.52 504.858,1375.42 504.844,1375.33 504.83,1375.23 504.816,1375.13 504.801,1375.04 504.787,1374.94 504.772,1374.85 504.758,1374.75 504.743,1374.65 504.728,1374.56 504.713,1374.46 504.697,1374.37 504.682,1374.27 504.666,1374.17 504.651,1374.08 504.635,1373.98 504.619,1373.89 504.603,1373.79 504.587,1373.69 504.571,1373.6 504.554,1373.5 504.538,1373.41 504.521,1373.31 504.505,1373.21 504.488,1373.12 504.471,1373.02 504.454,1372.93 504.436,1372.83 504.419,1372.74 504.402,1372.64 504.384,1372.54 504.366,1372.45 504.349,1372.35 504.331,1372.26 504.313,1372.16 504.294,1372.07 504.276,1371.97 504.258,1371.87 504.239,1371.78 504.22,1371.68 504.202,1371.59 504.183,1371.49 504.164,1371.4 504.145,1371.3 504.125,1371.2 504.106,1371.11 504.086,1371.01 504.067,1370.92 504.047,1370.82 504.027,1370.73 504.007,1370.63 503.987,1370.53 503.967,1370.44 503.946,1370.34 503.926,1370.25 503.905,1370.15 503.884,1370.06 503.863,1369.96 503.842,1369.87 503.821,1369.77 503.8,1369.67 503.779,1369.58 503.757,1369.48 503.736,1369.39 503.714,1369.29 503.692,1369.2 503.67,1369.1 503.648,1369.01 503.626,1368.91 503.604,1368.82 503.581,1368.72 503.559,1368.62 503.536,1368.53 503.513,1368.43 503.49,1368.34 503.467,1368.24 503.444,1368.15 503.421,1368.05 503.397,1367.96 503.374,1367.86 503.35,1367.77 503.326,1367.67 503.302,1367.58 503.278,1367.48 503.254,1367.39 503.23,1367.29 503.205,1367.2 503.181,1367.1 503.156,1367.01 503.131,1366.91 503.107,1366.81 503.082,1366.72 503.057,1366.62 503.031,1366.53 503.006,1366.43 502.98,1366.34 502.955,1366.24 502.929,1366.15 502.903,1366.05 502.877,1365.96 502.851,1365.86 502.825,1365.77 502.799,1365.67 502.772,1365.58 502.746,1365.48 502.719,1365.39 502.692,1365.29 502.665,1365.2 502.638,1365.1 502.611,1365.01 502.584,1364.91 502.556,1364.82 502.529,1364.72 502.501,1364.63 502.473,1364.53 502.445,1364.44 502.417,1364.34 502.389,1364.25 502.361,1364.16 502.333,1364.06 502.304,1363.97 502.275,1363.87 502.247,1363.78 502.218,1363.68 502.189,1363.59 502.16,1363.49 502.131,1363.4 502.101,1363.3 502.072,1363.21 502.042,1363.11 502.012,1363.02 501.983,1362.92 501.953,1362.83 501.923,1362.73 501.892,1362.64 501.862,1362.55 501.832,1362.45 501.801,1362.36 501.77,1362.26 501.74,1362.17 501.709,1362.07 501.678,1361.98 501.647,1361.88 501.615,1361.79 501.584,1361.7 501.552,1361.6 501.521,1361.51 501.489,1361.41 501.457,1361.32 501.425,1361.22 501.393,1361.13 501.361,1361.03 501.328,1360.94 501.296,1360.85 501.263,1360.75 501.231,1360.66 501.198,1360.56 501.165,1360.47 501.132,1360.38 501.098,1360.28 501.065,1360.19 501.032,1360.09 500.998,1360 500.964,1359.9 500.931,1359.81 500.897,1359.72 500.863,1359.62 500.829,1359.53 500.794,1359.43 500.76,1359.34 500.725,1359.25 500.691,1359.15 500.656,1359.06 500.621,1358.96 500.586,1358.87 500.551,1358.78 500.516,1358.68 500.48,1358.59 500.445,1358.49 500.409,1358.4 500.374,1358.31 500.338,1358.21 500.302,1358.12 500.266,1358.03 500.23,1357.93 500.193,1357.84 500.157,1357.74 500.12,1357.65 500.084,1357.56 500.047,1357.46 500.01,1357.37 499.973,1357.28 499.936,1357.18 499.899,1357.09 499.861,1356.99 499.824,1356.9 499.786,1356.81 499.748,1356.71 499.71,1356.62 499.672,1356.53 499.634,1356.43 499.596,1356.34 499.558,1356.25 499.519,1356.15 499.481,1356.06 499.442,1355.97 499.403,1355.87 499.364,1355.78 499.325,1355.69 499.286,1355.59 499.247,1355.5 499.207,1355.41 499.168,1355.31 499.128,1355.22 499.089,1355.13 499.049,1355.03 499.009,1354.94 498.969,1354.85 498.928,1354.75 498.888,1354.66 498.847,1354.57 498.807,1354.47 498.766,1354.38 498.725,1354.29 498.684,1354.2 498.643,1354.1 498.602,1354.01 498.561,1353.92 498.519,1353.82 498.478,1353.73 498.436,1353.64 498.394,1353.54 498.353,1353.45 498.311,1353.36 498.268,1353.27 498.226,1353.17 498.184,1353.08 498.141,1352.99 498.099,1352.9 498.056,1352.8 498.013,1352.71 497.97,1352.62 497.927,1352.52 497.884,1352.43 497.841,1352.34 497.797,1352.25 497.754,1352.15 497.71,1352.06 497.666,1351.97 497.622,1351.88 497.578,1351.78 497.534,1351.69 497.49,1351.6 497.446,1351.51 497.401,1351.41 497.356,1351.32 497.312,1351.23 497.267,1351.14 497.222,1351.04 497.177,1350.95 497.132,1350.86 497.086,1350.77 497.041,1350.68 496.995,1350.58 496.95,1350.49 496.904,1350.4 496.858,1350.31 496.812,1350.22 496.766,1350.12 496.72,1350.03 496.673,1349.94 496.627,1349.85 496.58,1349.75 496.533,1349.66 496.487,1349.57 496.44,1349.48 496.393,1349.39 496.345,1349.3 496.298,1349.2 496.251,1349.11 496.203,1349.02 496.155,1348.93 496.108,1348.84 496.06,1348.74 496.012,1348.65 495.964,1348.56 495.915,1348.47 495.867,1348.38 495.819,1348.29 495.77,1348.19 495.721,1348.1 495.672,1348.01 495.624,1347.92 495.574,1347.83 495.525,1347.74 495.476,1347.65 495.427,1347.55 495.377,1347.46 495.327,1347.37 495.278,1347.28 495.228,1347.19 495.178,1347.1 495.128,1347.01 495.077,1346.91 495.027,1346.82 494.977,1346.73 494.926,1346.64 494.875,1346.55 494.825,1346.46 494.774,1346.37 494.723,1346.28 494.672,1346.18 494.62,1346.09 494.569,1346 494.517,1345.91 494.466,1345.82 494.414,1345.73 494.362,1345.64 494.31,1345.55 494.258,1345.46 494.206,1345.37 494.154,1345.28 494.101,1345.18 494.049,1345.09 493.996,1345 493.943,1344.91 493.89,1344.82 493.837,1344.73 493.784,1344.64 493.731,1344.55 493.678,1344.46 493.624,1344.37 493.571,1344.28 493.517,1344.19 493.463,1344.1 493.409,1344.01 493.355,1343.92 493.301,1343.83 493.247,1343.74 493.192,1343.65 493.138,1343.55 493.083,1343.46 493.029,1343.37 492.974,1343.28 492.919,1343.19 492.864,1343.1 492.808,1343.01 492.753,1342.92 492.698,1342.83 492.642,1342.74 492.587,1342.65 492.531,1342.56 492.475,1342.47 492.419,1342.38 492.363,1342.29 492.307,1342.2 492.25,1342.11 492.194,1342.02 492.137,1341.93 492.081,1341.84 492.024,1341.75 491.967,1341.66 491.91,1341.57 491.853,1341.48 491.795,1341.39 491.738,1341.31 491.681,1341.22 491.623,1341.13 491.565,1341.04 491.508,1340.95 491.45,1340.86 491.392,1340.77 491.333,1340.68 491.275,1340.59 491.217,1340.5 491.158,1340.41 491.1,1340.32 491.041,1340.23 490.982,1340.14 490.923,1340.05 490.864,1339.96 490.805,1339.87 490.745,1339.79 490.686,1339.7 490.627,1339.61 490.567,1339.52 490.507,1339.43 490.447,1339.34 490.387,1339.25 490.327,1339.16 490.267,1339.07 490.207,1338.98 490.146,1338.9 490.086,1338.81 490.025,1338.72 489.964,1338.63 489.903,1338.54 489.842,1338.45 489.781,1338.36 489.72,1338.27 489.659,1338.19 489.597,1338.1 489.536,1338.01 489.474,1337.92 489.412,1337.83 489.35,1337.74 489.288,1337.65 489.226,1337.57 489.164,1337.48 489.102,1337.39 489.039,1337.3 488.977,1337.21 488.914,1337.12 488.851,1337.04 488.788,1336.95 488.725,1336.86 488.662,1336.77 488.599,1336.68 488.535,1336.59 488.472,1336.51 488.408,1336.42 488.345,1336.33 488.281,1336.24 488.217,1336.15 488.153,1336.07 488.089,1335.98 488.024,1335.89 487.96,1335.8 487.896,1335.72 487.831,1335.63 487.766,1335.54 487.701,1335.45 487.636,1335.36 487.571,1335.28 487.506,1335.19 487.441,1335.1 487.376,1335.01 487.31,1334.93 487.245,1334.84 487.179,1334.75 487.113,1334.66 487.047,1334.58 486.981,1334.49 486.915,1334.4 486.849,1334.31 486.782,1334.23 486.716,1334.14 486.649,1334.05 486.582,1333.97 486.516,1333.88 486.449,1333.79 486.382,1333.7 486.314,1333.62 486.247,1333.53 486.18,1333.44 486.112,1333.36 486.045,1333.27 485.977,1333.18 485.909,1333.1 485.841,1333.01 485.773,1332.92 485.705,1332.84 485.637,1332.75 485.568,1332.66 485.5,1332.58 485.431,1332.49 485.363,1332.4 485.294,1332.32 485.225,1332.23 485.156,1332.14 485.087,1332.06 485.017,1331.97 484.948,1331.88 484.879,1331.8 484.809,1331.71 484.739,1331.63 484.67,1331.54 484.6,1331.45 484.53,1331.37 484.459,1331.28 484.389,1331.19 484.319,1331.11 484.248,1331.02 484.178,1330.94 484.107,1330.85 484.036,1330.76 483.965,1330.68 483.894,1330.59 483.823,1330.51 483.752,1330.42 483.681,1330.34 483.609,1330.25 483.538,1330.16 483.466,1330.08 483.394,1329.99 483.322,1329.91 483.25,1329.82 483.178,1329.74 483.106,1329.65 483.034,1329.57 482.961,1329.48 482.889,1329.39 482.816,1329.31 482.743,1329.22 482.671,1329.14 482.598,1329.05 482.525,1328.97 482.451,1328.88 482.378,1328.8 482.305,1328.71 482.231,1328.63 482.158,1328.54 482.084,1328.46 482.01,1328.37 481.936,1328.29 481.862,1328.2 481.788,1328.12 481.714,1328.03 481.639,1327.95 481.565,1327.86 481.49,1327.78 481.415,1327.69 481.341,1327.61 481.266,1327.53 481.191,1327.44 481.116,1327.36 481.04,1327.27 480.965,1327.19 480.889,1327.1 480.814,1327.02 480.738,1326.93 480.662,1326.85 480.587,1326.77 480.511,1326.68 480.434,1326.6 480.358,1326.51 480.282,1326.43 480.206,1326.35 480.129,1326.26 480.052,1326.18 479.976,1326.09 479.899,1326.01 479.822,1325.93 479.745,1325.84 479.668,1325.76 479.59,1325.67 479.513,1325.59 479.435,1325.51 479.358,1325.42 479.28,1325.34 479.202,1325.26 479.124,1325.17 479.046,1325.09 478.968,1325.01 478.89,1324.92 478.812,1324.84 478.733,1324.76 478.655,1324.67 478.576,1324.59 478.497,1324.51 478.418,1324.42 478.339,1324.34 478.26,1324.26 478.181,1324.17 478.102,1324.09 478.023,1324.01 477.943,1323.92 477.863,1323.84 477.784,1323.76 477.704,1323.68 477.624,1323.59 477.544,1323.51 477.464,1323.43 477.384,1323.34 477.303,1323.26 477.223,1323.18 477.142,1323.1 477.062,1323.01 476.981,1322.93 476.9,1322.85 476.819,1322.77 476.738,1322.68 476.657,1322.6 476.575,1322.52 476.494,1322.44 476.412,1322.35 476.331,1322.27 476.249,1322.19 476.167,1322.11 476.085,1322.03 476.003,1321.94 475.921,1321.86 475.839,1321.78 475.757,1321.7 475.674,1321.62 475.592,1321.53 475.509,1321.45 475.426,1321.37 475.343,1321.29 475.26,1321.21 475.177,1321.13 475.094,1321.04 475.011,1320.96 474.928,1320.88 474.844,1320.8 474.76,1320.72 474.677,1320.64 474.593,1320.56 474.509,1320.47 474.425,1320.39 474.341,1320.31 474.257,1320.23 474.172,1320.15 474.088,1320.07 474.004,1319.99 473.919,1319.91 473.834,1319.83 473.749,1319.74 473.664,1319.66 473.579,1319.58 473.494,1319.5 473.409,1319.42 473.324,1319.34 473.238,1319.26 473.153,1319.18 473.067,1319.1 472.981,1319.02 472.895,1318.94 472.809,1318.86 472.723,1318.78 472.637,1318.7 472.551,1318.62 472.465,1318.54 472.378,1318.46 472.292,1318.38 472.205,1318.3 472.118,1318.21 472.031,1318.13 471.944,1318.05 471.857,1317.97 471.77,1317.89 471.683,1317.81 471.595,1317.73 471.508,1317.66 471.42,1317.58 471.333,1317.5 471.245,1317.42 471.157,1317.34 471.069,1317.26 470.981,1317.18 470.893,1317.1 470.804,1317.02 470.716,1316.94 470.627,1316.86 470.539,1316.78 470.45,1316.7 470.361,1316.62 470.272,1316.54 470.183,1316.46 470.094,1316.38 470.005,1316.3 469.916,1316.23 469.826,1316.15 469.737,1316.07 469.647,1315.99 469.557,1315.91 469.468,1315.83 469.378,1315.75 469.288,1315.67 469.198,1315.59 469.107,1315.52 469.017,1315.44 468.927,1315.36 468.836,1315.28 468.746,1315.2 468.655,1315.12 468.564,1315.04 468.473,1314.97 468.382,1314.89 468.291,1314.81 468.2,1314.73 468.108,1314.65 468.017,1314.57 467.926,1314.5 467.834,1314.42 467.742,1314.34 467.65,1314.26 467.558,1314.18 467.466,1314.11 467.374,1314.03 467.282,1313.95 467.19,1313.87 467.097,1313.8 467.005,1313.72 466.912,1313.64 466.82,1313.56 466.727,1313.49 466.634,1313.41 466.541,1313.33 466.448,1313.25 466.355,1313.18 466.261,1313.1 466.168,1313.02 466.074,1312.94 465.981,1312.87 465.887,1312.79 465.793,1312.71 465.7,1312.64 465.606,1312.56 465.511,1312.48 465.417,1312.4 465.323,1312.33 465.229,1312.25 465.134,1312.17 465.04,1312.1 464.945,1312.02 464.85,1311.94 464.755,1311.87 464.66,1311.79 464.565,1311.71 464.47,1311.64 464.375,1311.56 464.28,1311.49 464.184,1311.41 464.089,1311.33 463.993,1311.26 463.897,1311.18 463.801,1311.1 463.705,1311.03 463.609,1310.95 463.513,1310.88 463.417,1310.8 463.321,1310.72 463.224,1310.65 463.128,1310.57 463.031,1310.5 462.934,1310.42 462.838,1310.35 462.741,1310.27 462.644,1310.2 462.547,1310.12 462.45,1310.04 462.352,1309.97 462.255,1309.89 462.157,1309.82 462.06,1309.74 461.962,1309.67 461.864,1309.59 461.767,1309.52 461.669,1309.44 461.571,1309.37 461.472,1309.29 461.374,1309.22 461.276,1309.14 461.177,1309.07 461.079,1308.99 460.98,1308.92 460.882,1308.84 460.783,1308.77 460.684,1308.69 460.585,1308.62 460.486,1308.55 460.387,1308.47 460.287,1308.4 460.188,1308.32 460.088,1308.25 459.989,1308.17 459.889,1308.1 459.789,1308.02 459.69,1307.95 459.59,1307.88 459.49,1307.8 459.389,1307.73 459.289,1307.65 459.189,1307.58 459.089,1307.51 458.988,1307.43 458.887,1307.36 458.787,1307.29 458.686,1307.21 458.585,1307.14 458.484,1307.07 458.383,1306.99 458.282,1306.92 458.181,1306.84 458.079,1306.77 457.978,1306.7 457.876,1306.63 457.775,1306.55 457.673,1306.48 457.571,1306.41 457.469,1306.33 457.367,1306.26 457.265,1306.19 457.163,1306.11 457.061,1306.04 456.958,1305.97 456.856,1305.9 456.753,1305.82 456.65,1305.75 456.548,1305.68 456.445,1305.61 456.342,1305.53 456.239,1305.46 456.136,1305.39 456.033,1305.32 455.929,1305.24 455.826,1305.17 455.722,1305.1 455.619,1305.03 455.515,1304.95 455.411,1304.88 455.308,1304.81 455.204,1304.74 455.1,1304.67 454.995,1304.59 454.891,1304.52 454.787,1304.45 454.683,1304.38 454.578,1304.31 454.473,1304.24 454.369,1304.16 454.264,1304.09 454.159,1304.02 454.054,1303.95 453.949,1303.88 453.844,1303.81 453.739,1303.74 453.634,1303.67 453.528,1303.59 453.423,1303.52 453.317,1303.45 453.211,1303.38 453.106,1303.31 453,1303.24 452.894,1303.17 452.788,1303.1 452.682,1303.03 452.575,1302.96 452.469,1302.89 452.363,1302.82 452.256,1302.74 452.15,1302.67 452.043,1302.6 451.936,1302.53 451.829,1302.46 451.723,1302.39 451.616,1302.32 451.508,1302.25 451.401,1302.18 451.294,1302.11 451.187,1302.04 451.079,1301.97 450.972,1301.9 450.864,1301.83 450.756,1301.76 450.648,1301.69 450.54,1301.62 450.432,1301.55 450.324,1301.48 450.216,1301.42 450.108,1301.35 450,1301.28 449.891,1301.21 449.783,1301.14 449.674,1301.07 449.565,1301 449.456,1300.93 449.348,1300.86 449.239,1300.79 449.13,1300.72 449.02,1300.65 448.911,1300.59 448.802,1300.52 448.692,1300.45 448.583,1300.38 448.473,1300.31 448.364,1300.24 448.254,1300.17 448.144,1300.1 448.034,1300.04 447.924,1299.97 447.814,1299.9 447.704,1299.83 447.594,1299.76 447.483,1299.69 "/>
<polyline clip-path="url(#clip752)" style="stroke:#ff0000; stroke-linecap:round; stroke-linejoin:round; stroke-width:4; stroke-opacity:1; fill:none" points="307.043,1386.4 2293.17,160.256 "/>
<polyline clip-path="url(#clip752)" style="stroke:#000000; stroke-linecap:round; stroke-linejoin:round; stroke-width:4; stroke-opacity:1; fill:none" stroke-dasharray="16, 10" points="307.043,1386.4 2293.17,1386.4 "/>
<circle clip-path="url(#clip752)" cx="2293.17" cy="160.256" r="18" fill="#008000" fill-rule="evenodd" fill-opacity="1" stroke="#000000" stroke-opacity="1" stroke-width="3.2"/>
<path clip-path="url(#clip750)" d="M1864.74 920.33 L2282.58 920.33 L2282.58 661.13 L1864.74 661.13  Z" fill="#ffffff" fill-rule="evenodd" fill-opacity="1"/>
<polyline clip-path="url(#clip750)" style="stroke:#000000; stroke-linecap:round; stroke-linejoin:round; stroke-width:4; stroke-opacity:1; fill:none" points="1864.74,920.33 2282.58,920.33 2282.58,661.13 1864.74,661.13 1864.74,920.33 "/>
<polyline clip-path="url(#clip750)" style="stroke:#0000ff; stroke-linecap:round; stroke-linejoin:round; stroke-width:4; stroke-opacity:1; fill:none" points="1888.13,712.97 2028.48,712.97 "/>
<path clip-path="url(#clip750)" d="M2071.13 713.814 L2056.39 713.814 Q2056.73 720.736 2058.33 723.676 Q2060.32 727.287 2063.77 727.287 Q2067.24 727.287 2069.17 723.652 Q2070.85 720.458 2071.13 713.814 M2071.06 709.879 Q2070.42 703.305 2069.17 700.99 Q2067.17 697.333 2063.77 697.333 Q2060.23 697.333 2058.35 700.944 Q2056.87 703.861 2056.43 709.879 L2071.06 709.879 M2063.77 693.861 Q2069.33 693.861 2072.5 698.768 Q2075.67 703.652 2075.67 712.31 Q2075.67 720.944 2072.5 725.851 Q2069.33 730.782 2063.77 730.782 Q2058.19 730.782 2055.04 725.851 Q2051.87 720.944 2051.87 712.31 Q2051.87 703.652 2055.04 698.768 Q2058.19 693.861 2063.77 693.861 Z" fill="#000000" fill-rule="nonzero" fill-opacity="1" /><polyline clip-path="url(#clip750)" style="stroke:#ff0000; stroke-linecap:round; stroke-linejoin:round; stroke-width:4; stroke-opacity:1; fill:none" points="1888.13,764.81 2028.48,764.81 "/>
<path clip-path="url(#clip750)" d="M2067.06 760.145 Q2066.34 759.729 2065.48 759.543 Q2064.65 759.335 2063.63 759.335 Q2060.02 759.335 2058.08 761.696 Q2056.16 764.034 2056.16 768.432 L2056.16 782.09 L2051.87 782.09 L2051.87 756.164 L2056.16 756.164 L2056.16 760.192 Q2057.5 757.83 2059.65 756.696 Q2061.8 755.539 2064.88 755.539 Q2065.32 755.539 2065.85 755.608 Q2066.39 755.655 2067.04 755.77 L2067.06 760.145 Z" fill="#000000" fill-rule="nonzero" fill-opacity="1" /><polyline clip-path="url(#clip750)" style="stroke:#000000; stroke-linecap:round; stroke-linejoin:round; stroke-width:4; stroke-opacity:1; fill:none" stroke-dasharray="16, 10" points="1888.13,816.65 2028.48,816.65 "/>
<path clip-path="url(#clip750)" d="M2068.26 817.726 Q2069.77 818.235 2071.18 819.902 Q2072.61 821.569 2074.05 824.485 L2078.79 833.93 L2073.77 833.93 L2069.35 825.064 Q2067.64 821.592 2066.02 820.457 Q2064.42 819.323 2061.64 819.323 L2056.55 819.323 L2056.55 833.93 L2051.87 833.93 L2051.87 799.37 L2062.43 799.37 Q2068.35 799.37 2071.27 801.846 Q2074.19 804.323 2074.19 809.323 Q2074.19 812.587 2072.66 814.74 Q2071.16 816.893 2068.26 817.726 M2056.55 803.212 L2056.55 815.481 L2062.43 815.481 Q2065.81 815.481 2067.52 813.93 Q2069.26 812.356 2069.26 809.323 Q2069.26 806.291 2067.52 804.763 Q2065.81 803.212 2062.43 803.212 L2056.55 803.212 Z" fill="#000000" fill-rule="nonzero" fill-opacity="1" /><path clip-path="url(#clip750)" d="M2104.67 819.902 L2104.67 821.985 L2085.09 821.985 Q2085.37 826.383 2087.73 828.698 Q2090.11 830.99 2094.35 830.99 Q2096.8 830.99 2099.1 830.388 Q2101.41 829.786 2103.68 828.582 L2103.68 832.61 Q2101.39 833.582 2098.98 834.092 Q2096.57 834.601 2094.1 834.601 Q2087.89 834.601 2084.26 830.99 Q2080.65 827.379 2080.65 821.221 Q2080.65 814.856 2084.07 811.129 Q2087.52 807.379 2093.35 807.379 Q2098.59 807.379 2101.62 810.758 Q2104.67 814.115 2104.67 819.902 M2100.41 818.652 Q2100.37 815.157 2098.45 813.073 Q2096.55 810.99 2093.4 810.99 Q2089.84 810.99 2087.68 813.004 Q2085.55 815.018 2085.23 818.675 L2100.41 818.652 Z" fill="#000000" fill-rule="nonzero" fill-opacity="1" /><path clip-path="url(#clip750)" d="M2123.45 820.897 Q2118.29 820.897 2116.29 822.078 Q2114.3 823.258 2114.3 826.106 Q2114.3 828.374 2115.79 829.717 Q2117.29 831.036 2119.86 831.036 Q2123.4 831.036 2125.53 828.536 Q2127.68 826.013 2127.68 821.846 L2127.68 820.897 L2123.45 820.897 M2131.94 819.138 L2131.94 833.93 L2127.68 833.93 L2127.68 829.994 Q2126.22 832.356 2124.05 833.49 Q2121.87 834.601 2118.72 834.601 Q2114.74 834.601 2112.38 832.379 Q2110.04 830.133 2110.04 826.383 Q2110.04 822.008 2112.96 819.786 Q2115.9 817.564 2121.71 817.564 L2127.68 817.564 L2127.68 817.147 Q2127.68 814.207 2125.74 812.61 Q2123.82 810.99 2120.32 810.99 Q2118.1 810.99 2115.99 811.522 Q2113.89 812.055 2111.94 813.12 L2111.94 809.184 Q2114.28 808.282 2116.48 807.842 Q2118.68 807.379 2120.76 807.379 Q2126.39 807.379 2129.16 810.295 Q2131.94 813.212 2131.94 819.138 Z" fill="#000000" fill-rule="nonzero" fill-opacity="1" /><path clip-path="url(#clip750)" d="M2140.72 797.911 L2144.97 797.911 L2144.97 833.93 L2140.72 833.93 L2140.72 797.911 Z" fill="#000000" fill-rule="nonzero" fill-opacity="1" /><path clip-path="url(#clip750)" d="M2151.73 819.045 L2164.21 819.045 L2164.21 822.842 L2151.73 822.842 L2151.73 819.045 Z" fill="#000000" fill-rule="nonzero" fill-opacity="1" /><path clip-path="url(#clip750)" d="M2182.78 820.897 Q2177.61 820.897 2175.62 822.078 Q2173.63 823.258 2173.63 826.106 Q2173.63 828.374 2175.11 829.717 Q2176.62 831.036 2179.19 831.036 Q2182.73 831.036 2184.86 828.536 Q2187.01 826.013 2187.01 821.846 L2187.01 820.897 L2182.78 820.897 M2191.27 819.138 L2191.27 833.93 L2187.01 833.93 L2187.01 829.994 Q2185.55 832.356 2183.38 833.49 Q2181.2 834.601 2178.05 834.601 Q2174.07 834.601 2171.71 832.379 Q2169.37 830.133 2169.37 826.383 Q2169.37 822.008 2172.29 819.786 Q2175.23 817.564 2181.04 817.564 L2187.01 817.564 L2187.01 817.147 Q2187.01 814.207 2185.07 812.61 Q2183.15 810.99 2179.65 810.99 Q2177.43 810.99 2175.32 811.522 Q2173.22 812.055 2171.27 813.12 L2171.27 809.184 Q2173.61 808.282 2175.81 807.842 Q2178.01 807.379 2180.09 807.379 Q2185.72 807.379 2188.49 810.295 Q2191.27 813.212 2191.27 819.138 Z" fill="#000000" fill-rule="nonzero" fill-opacity="1" /><path clip-path="url(#clip750)" d="M2221.59 808.004 L2212.22 820.619 L2222.08 833.93 L2217.06 833.93 L2209.51 823.744 L2201.97 833.93 L2196.94 833.93 L2207.01 820.365 L2197.8 808.004 L2202.82 808.004 L2209.7 817.24 L2216.57 808.004 L2221.59 808.004 Z" fill="#000000" fill-rule="nonzero" fill-opacity="1" /><path clip-path="url(#clip750)" d="M2228.1 808.004 L2232.36 808.004 L2232.36 833.93 L2228.1 833.93 L2228.1 808.004 M2228.1 797.911 L2232.36 797.911 L2232.36 803.305 L2228.1 803.305 L2228.1 797.911 Z" fill="#000000" fill-rule="nonzero" fill-opacity="1" /><path clip-path="url(#clip750)" d="M2257.8 808.768 L2257.8 812.795 Q2255.99 811.87 2254.05 811.407 Q2252.1 810.944 2250.02 810.944 Q2246.85 810.944 2245.25 811.916 Q2243.68 812.888 2243.68 814.832 Q2243.68 816.314 2244.81 817.17 Q2245.95 818.004 2249.37 818.768 L2250.83 819.092 Q2255.37 820.064 2257.27 821.846 Q2259.19 823.606 2259.19 826.777 Q2259.19 830.388 2256.32 832.494 Q2253.47 834.601 2248.47 834.601 Q2246.39 834.601 2244.12 834.184 Q2241.87 833.791 2239.37 832.981 L2239.37 828.582 Q2241.73 829.809 2244.03 830.434 Q2246.32 831.036 2248.56 831.036 Q2251.57 831.036 2253.19 830.018 Q2254.81 828.976 2254.81 827.101 Q2254.81 825.365 2253.63 824.439 Q2252.47 823.513 2248.52 822.656 L2247.03 822.309 Q2243.08 821.476 2241.32 819.763 Q2239.56 818.027 2239.56 815.018 Q2239.56 811.36 2242.15 809.37 Q2244.74 807.379 2249.51 807.379 Q2251.87 807.379 2253.96 807.726 Q2256.04 808.073 2257.8 808.768 Z" fill="#000000" fill-rule="nonzero" fill-opacity="1" /><circle clip-path="url(#clip750)" cx="1958.3" cy="868.49" r="20.9455" fill="#008000" fill-rule="evenodd" fill-opacity="1" stroke="#000000" stroke-opacity="1" stroke-width="3.72364"/>
<path clip-path="url(#clip750)" d="M2071.41 869.024 Q2071.41 870.265 2070.59 871.061 Q2069.79 871.858 2068.76 871.858 Q2067.87 871.858 2067.4 871.342 Q2066.93 870.827 2066.93 870.171 Q2066.93 869.234 2067.66 868.461 Q2068.39 867.689 2069.44 867.525 Q2068.67 866.962 2067.43 866.962 Q2065.39 866.962 2063.58 868.532 Q2062.79 869.258 2061.92 870.593 Q2061.06 871.905 2060.89 872.467 L2059.37 878.721 Q2059.23 879.423 2058.36 882.796 Q2057.52 886.145 2057.45 886.286 Q2057.21 886.942 2056.7 887.293 Q2056.18 887.644 2055.67 887.644 Q2055.08 887.644 2054.68 887.293 Q2054.29 886.942 2054.29 886.333 Q2054.29 886.239 2054.36 885.888 Q2054.43 885.536 2054.54 885.045 Q2054.66 884.553 2054.71 884.272 L2057.49 873.193 Q2058.01 871.178 2058.13 870.546 Q2058.27 869.89 2058.27 869.164 Q2058.27 867.899 2057.87 867.431 Q2057.47 866.962 2056.77 866.962 Q2055.55 866.962 2054.75 868.415 Q2053.96 869.867 2053.28 872.678 Q2053.07 873.45 2052.93 873.614 Q2052.81 873.778 2052.46 873.778 Q2051.87 873.755 2051.87 873.287 Q2051.87 873.169 2052.06 872.42 Q2052.25 871.647 2052.6 870.523 Q2052.97 869.375 2053.37 868.649 Q2053.61 868.157 2053.82 867.829 Q2054.03 867.501 2054.45 866.986 Q2054.87 866.471 2055.5 866.19 Q2056.14 865.908 2056.91 865.908 Q2058.6 865.908 2059.79 866.939 Q2061.01 867.97 2061.29 869.586 Q2061.87 868.743 2062.6 868.016 Q2063.33 867.267 2064.66 866.588 Q2066 865.908 2067.43 865.908 Q2069.21 865.908 2070.31 866.822 Q2071.41 867.712 2071.41 869.024 Z" fill="#000000" fill-rule="nonzero" fill-opacity="1" /><path clip-path="url(#clip750)" d="M2091.53 881.555 Q2091.71 881.765 2091.71 881.976 Q2091.71 882.187 2091.25 882.796 Q2090.8 883.405 2089.84 884.225 Q2088.88 885.045 2087.64 885.818 Q2086.4 886.59 2084.57 887.106 Q2082.74 887.644 2080.82 887.644 Q2077.38 887.644 2075.32 885.185 Q2073.28 882.726 2073.28 878.955 Q2073.28 876.542 2074.08 874.411 Q2074.87 872.256 2076.16 870.733 Q2077.47 869.211 2079.11 868.11 Q2080.78 866.986 2082.51 866.447 Q2084.24 865.908 2085.86 865.908 Q2088.22 865.908 2089.61 867.103 Q2090.99 868.298 2090.99 869.984 Q2090.99 870.382 2090.87 870.874 Q2090.78 871.366 2090.45 872.139 Q2090.15 872.912 2089.35 873.685 Q2088.55 874.434 2087.38 874.926 Q2084.78 876.027 2080.05 876.027 L2077.5 876.027 Q2076.75 879.048 2076.75 881.016 Q2076.75 881.789 2076.89 882.585 Q2077.03 883.358 2077.4 884.342 Q2077.8 885.326 2078.69 885.958 Q2079.6 886.567 2080.92 886.567 Q2081.34 886.567 2081.78 886.544 Q2082.25 886.52 2083.42 886.263 Q2084.62 886.005 2085.67 885.56 Q2086.73 885.115 2088.06 884.155 Q2089.42 883.171 2090.5 881.836 Q2090.87 881.344 2091.13 881.344 Q2091.34 881.344 2091.53 881.555 M2089.4 869.984 Q2089.4 868.696 2088.44 867.829 Q2087.5 866.962 2085.86 866.962 Q2085.34 866.962 2084.71 867.08 Q2084.08 867.197 2083.02 867.689 Q2081.99 868.18 2081.08 869 Q2080.17 869.797 2079.25 871.366 Q2078.34 872.912 2077.8 874.973 L2079.77 874.973 Q2080.45 874.973 2080.94 874.973 Q2081.43 874.949 2082.51 874.856 Q2083.61 874.762 2084.41 874.598 Q2085.2 874.411 2086.21 874.036 Q2087.22 873.661 2087.85 873.169 Q2088.51 872.654 2088.95 871.834 Q2089.4 871.015 2089.4 869.984 Z" fill="#000000" fill-rule="nonzero" fill-opacity="1" /><path clip-path="url(#clip750)" d="M2105.23 851.795 Q2105.23 852.516 2104.64 853.057 Q2104.06 853.582 2103.44 853.582 Q2102.86 853.582 2102.5 853.238 Q2102.16 852.877 2102.16 852.369 Q2102.16 851.696 2102.73 851.139 Q2103.31 850.581 2103.98 850.581 Q2104.54 850.581 2104.88 850.926 Q2105.23 851.27 2105.23 851.795 M2105.52 867.977 Q2105.52 868.108 2105.37 868.633 Q2105.23 869.141 2104.87 869.928 Q2104.52 870.699 2104.05 871.42 Q2103.57 872.142 2102.78 872.65 Q2102.01 873.158 2101.13 873.158 Q2099.93 873.158 2099.14 872.371 Q2098.37 871.584 2098.37 870.404 Q2098.37 869.764 2099.14 867.715 Q2101.37 861.747 2101.45 861.501 Q2101.83 860.566 2101.83 859.747 Q2101.83 859.37 2101.75 859.14 Q2101.67 858.894 2101.5 858.812 Q2101.34 858.714 2101.24 858.697 Q2101.16 858.681 2101 858.681 Q2100.03 858.681 2099.13 859.665 Q2098.22 860.648 2097.6 862.845 Q2097.47 863.255 2097.39 863.354 Q2097.31 863.452 2097.06 863.452 Q2096.65 863.436 2096.65 863.108 Q2096.65 863.009 2096.77 862.632 Q2096.88 862.239 2097.09 861.649 Q2097.31 861.042 2097.68 860.419 Q2098.06 859.779 2098.52 859.222 Q2099 858.665 2099.67 858.304 Q2100.34 857.943 2101.09 857.943 Q2102.32 857.943 2103.08 858.746 Q2103.85 859.533 2103.85 860.698 Q2103.85 861.337 2103.41 862.468 Q2102.86 863.944 2102.67 864.419 L2101.36 867.944 Q2100.88 869.223 2100.73 869.617 Q2100.6 869.994 2100.49 870.453 Q2100.39 870.896 2100.39 871.306 Q2100.39 871.879 2100.57 872.142 Q2100.77 872.404 2101.19 872.404 Q2102.37 872.404 2103.24 871.24 Q2104.11 870.06 2104.62 868.256 Q2104.64 868.207 2104.65 868.125 Q2104.78 867.715 2104.91 867.666 Q2104.98 867.649 2105.11 867.649 Q2105.52 867.649 2105.52 867.977 Z" fill="#000000" fill-rule="nonzero" fill-opacity="1" /><path clip-path="url(#clip750)" d="M2122.92 855.992 Q2122.92 858.746 2122.04 861.845 Q2121.17 864.928 2119.79 867.42 Q2118.42 869.896 2116.61 871.535 Q2114.81 873.158 2113.09 873.158 Q2111.99 873.158 2111.17 872.552 Q2110.37 871.929 2109.92 870.896 Q2109.48 869.846 2109.27 868.699 Q2109.05 867.535 2109.05 866.272 Q2109.05 864.387 2109.46 862.337 Q2109.87 860.271 2110.56 858.402 Q2111.25 856.517 2112.22 854.812 Q2113.19 853.09 2114.25 851.844 Q2115.33 850.581 2116.55 849.844 Q2117.76 849.106 2118.89 849.106 Q2119.71 849.106 2120.37 849.467 Q2121.04 849.811 2121.47 850.417 Q2121.89 851.008 2122.19 851.713 Q2122.5 852.418 2122.65 853.238 Q2122.79 854.041 2122.86 854.713 Q2122.92 855.369 2122.92 855.992 M2120.71 853.91 Q2120.71 853.074 2120.65 852.451 Q2120.58 851.811 2120.4 851.172 Q2120.22 850.532 2119.83 850.188 Q2119.45 849.844 2118.86 849.844 Q2117.14 849.844 2115.2 853.369 Q2114.58 854.467 2114.02 855.959 Q2113.46 857.451 2113.27 858.156 Q2113.07 858.861 2112.61 860.599 L2119.63 860.599 Q2120.71 856.123 2120.71 853.91 M2119.33 861.665 L2112.35 861.665 Q2111.27 865.764 2111.27 868.322 Q2111.27 870.551 2111.73 871.486 Q2112.2 872.404 2113.09 872.404 Q2114.1 872.404 2115.05 871.388 Q2116.01 870.355 2116.97 868.486 Q2118.25 866.059 2119.33 861.665 Z" fill="#000000" fill-rule="nonzero" fill-opacity="1" /></svg>
